<svg width="376" height="180" viewBox="0 0 376 180" fill="none" xmlns="http://www.w3.org/2000/svg">
<path d="M0 10C0 4.47716 4.47715 0 10 0H366C371.523 0 376 4.47715 376 10V180H0V10Z" fill="#199B65"/>
<path d="M145.537 79.1818L152.014 97.5483H152.27L158.747 79.1818H161.517L153.506 101H150.778L142.767 79.1818H145.537ZM169.912 101.341C168.335 101.341 166.975 100.993 165.832 100.297C164.695 99.5938 163.818 98.6136 163.2 97.3565C162.589 96.0923 162.284 94.6222 162.284 92.946C162.284 91.2699 162.589 89.7926 163.2 88.5142C163.818 87.2287 164.678 86.2273 165.778 85.5099C166.886 84.7855 168.179 84.4233 169.656 84.4233C170.509 84.4233 171.35 84.5653 172.181 84.8494C173.012 85.1335 173.768 85.5952 174.45 86.2344C175.132 86.8665 175.675 87.7045 176.08 88.7486C176.485 89.7926 176.688 91.0781 176.688 92.6051V93.6705H164.074V91.4972H174.131C174.131 90.5739 173.946 89.75 173.577 89.0256C173.214 88.3011 172.696 87.7294 172.021 87.3104C171.354 86.8913 170.565 86.6818 169.656 86.6818C168.655 86.6818 167.788 86.9304 167.057 87.4276C166.332 87.9176 165.775 88.5568 165.384 89.3452C164.994 90.1335 164.798 90.9787 164.798 91.8807V93.3295C164.798 94.5653 165.011 95.6129 165.438 96.4723C165.871 97.3246 166.471 97.9744 167.238 98.4219C168.005 98.8622 168.896 99.0824 169.912 99.0824C170.572 99.0824 171.169 98.9901 171.702 98.8054C172.241 98.6136 172.707 98.3295 173.097 97.9531C173.488 97.5696 173.79 97.0937 174.003 96.5256L176.432 97.2074C176.176 98.0312 175.746 98.7557 175.143 99.3807C174.539 99.9986 173.793 100.482 172.906 100.83C172.018 101.17 171.02 101.341 169.912 101.341ZM187.16 101.341C185.626 101.341 184.305 100.979 183.197 100.254C182.089 99.5298 181.237 98.532 180.64 97.2607C180.043 95.9893 179.745 94.5369 179.745 92.9034C179.745 91.2415 180.05 89.7749 180.661 88.5036C181.279 87.2251 182.138 86.2273 183.239 85.5099C184.347 84.7855 185.64 84.4233 187.117 84.4233C188.268 84.4233 189.305 84.6364 190.228 85.0625C191.151 85.4886 191.908 86.0852 192.497 86.8523C193.087 87.6193 193.452 88.5142 193.594 89.5369H191.08C190.888 88.7912 190.462 88.1307 189.802 87.5554C189.148 86.973 188.268 86.6818 187.16 86.6818C186.18 86.6818 185.32 86.9375 184.582 87.4489C183.85 87.9531 183.278 88.6669 182.866 89.5902C182.462 90.5064 182.259 91.5824 182.259 92.8182C182.259 94.0824 182.458 95.1832 182.856 96.1207C183.261 97.0582 183.829 97.7862 184.56 98.3047C185.299 98.8232 186.165 99.0824 187.16 99.0824C187.813 99.0824 188.406 98.9688 188.939 98.7415C189.472 98.5142 189.923 98.1875 190.292 97.7614C190.661 97.3352 190.924 96.8239 191.08 96.2273H193.594C193.452 97.1932 193.101 98.0632 192.54 98.8374C191.986 99.6044 191.251 100.215 190.335 100.67C189.425 101.117 188.367 101.341 187.16 101.341ZM204.386 84.6364V86.767H195.906V84.6364H204.386ZM198.378 80.7159H200.892V96.3125C200.892 97.0227 200.995 97.5554 201.201 97.9105C201.414 98.2585 201.684 98.4929 202.011 98.6136C202.344 98.7273 202.696 98.7841 203.065 98.7841C203.342 98.7841 203.57 98.7699 203.747 98.7415C203.925 98.706 204.067 98.6776 204.173 98.6562L204.685 100.915C204.514 100.979 204.276 101.043 203.971 101.107C203.665 101.178 203.278 101.213 202.81 101.213C202.099 101.213 201.403 101.06 200.722 100.755C200.047 100.45 199.486 99.9844 199.038 99.3594C198.598 98.7344 198.378 97.946 198.378 96.9943V80.7159ZM214.64 101.341C213.163 101.341 211.867 100.989 210.752 100.286C209.644 99.5831 208.777 98.5994 208.152 97.3352C207.534 96.071 207.225 94.5937 207.225 92.9034C207.225 91.1989 207.534 89.7109 208.152 88.4396C208.777 87.1683 209.644 86.1811 210.752 85.478C211.867 84.7749 213.163 84.4233 214.64 84.4233C216.118 84.4233 217.41 84.7749 218.518 85.478C219.633 86.1811 220.5 87.1683 221.118 88.4396C221.743 89.7109 222.055 91.1989 222.055 92.9034C222.055 94.5937 221.743 96.071 221.118 97.3352C220.5 98.5994 219.633 99.5831 218.518 100.286C217.41 100.989 216.118 101.341 214.64 101.341ZM214.64 99.0824C215.762 99.0824 216.686 98.7947 217.41 98.2195C218.135 97.6442 218.671 96.8878 219.019 95.9503C219.367 95.0128 219.541 93.9972 219.541 92.9034C219.541 91.8097 219.367 90.7905 219.019 89.8459C218.671 88.9013 218.135 88.1378 217.41 87.5554C216.686 86.973 215.762 86.6818 214.64 86.6818C213.518 86.6818 212.595 86.973 211.87 87.5554C211.146 88.1378 210.61 88.9013 210.262 89.8459C209.914 90.7905 209.74 91.8097 209.74 92.9034C209.74 93.9972 209.914 95.0128 210.262 95.9503C210.61 96.8878 211.146 97.6442 211.87 98.2195C212.595 98.7947 213.518 99.0824 214.64 99.0824ZM225.893 101V84.6364H228.322V87.108H228.492C228.791 86.2983 229.33 85.6413 230.112 85.1371C230.893 84.6328 231.774 84.3807 232.754 84.3807C232.938 84.3807 233.169 84.3842 233.446 84.3913C233.723 84.3984 233.933 84.4091 234.075 84.4233V86.9801C233.99 86.9588 233.794 86.9268 233.489 86.8842C233.191 86.8345 232.874 86.8097 232.541 86.8097C231.745 86.8097 231.035 86.9766 230.41 87.3104C229.792 87.6371 229.302 88.0916 228.94 88.674C228.585 89.2493 228.407 89.9062 228.407 90.6449V101H225.893Z" fill="white"/>
</svg>
