<svg width="171" height="170" viewBox="0 0 171 170" fill="none" xmlns="http://www.w3.org/2000/svg">
<path d="M56.1585 14.2197C54.1116 18.3711 51.1744 32.504 50.348 37.1756C50.1775 38.1395 51.7578 38.4778 52.0341 37.5207C53.5692 32.2218 57.6629 19.6988 58.1848 14.6362C58.3144 13.334 56.6429 13.2362 56.1585 14.2197Z" fill="#199B65"/>
<path d="M47.1421 19.5347C43.8507 21.9139 40.7646 24.5633 37.9161 27.455C36.7076 28.6798 36.085 29.5273 37.714 30.7113C40.0976 32.3259 42.6927 33.6061 45.4262 34.5159C46.2364 34.8287 46.8172 33.5019 46.0343 33.1092C44.2433 32.209 41.0929 30.1342 39.406 29.0504C42.1581 26.2038 45.1908 23.5254 48.1579 20.927C48.3434 20.7917 48.4673 20.5886 48.5025 20.3622C48.5377 20.1359 48.4812 19.9049 48.3455 19.72C48.2098 19.5351 48.006 19.4116 47.7788 19.3765C47.5517 19.3414 47.3199 19.3977 47.1345 19.533L47.1421 19.5347Z" fill="#199B65"/>
<path d="M70.5569 22.1536C67.7144 25.2544 64.8429 28.3441 62.0601 31.5146C61.2925 32.3867 62.6366 33.4382 63.4246 32.6485C66.43 29.6438 69.2828 26.5209 72.2677 23.4762C74.109 21.5985 73.3372 21.2543 71.1701 20.1017C68.6751 18.7713 66.0449 17.7098 63.324 16.9354C63.1244 16.8946 62.9167 16.9249 62.7372 17.0209C62.5577 17.117 62.4176 17.2728 62.3415 17.4611C62.2653 17.6495 62.2578 17.8585 62.3203 18.0518C62.3828 18.2451 62.5113 18.4104 62.6835 18.519C65.3896 19.5465 68.0205 20.761 70.5569 22.1536Z" fill="#199B65"/>
<path d="M73.3244 77.2846C73.1871 75.2446 71.6972 62.2294 71.2656 59.3895C74.7299 50.269 86.0769 39.7681 95.2075 37.0515C95.8608 41.1885 97.6458 44.9472 100.554 47.0509C91.8191 48.96 86.1716 51.68 76.0279 76.6326C75.1594 76.9674 74.2504 77.1866 73.3244 77.2846Z" fill="#199B65"/>
<path d="M163.239 67.8844C152.505 37.9168 125.767 33.2605 117.127 33.4296C116.975 34.3174 116.536 35.1316 115.879 35.7493C116.817 38.0222 117.186 42.2637 117.467 44.0419C120.452 45.1163 132.457 49.3595 138.258 57.539C141.955 62.7521 141.958 73.4145 139.566 88.6839C137.984 98.7751 132.86 104.689 127.742 104.689C127.088 106.748 125.97 110.809 122.966 113.217C132.117 111.497 137.626 104.488 141.32 96.4622C141.378 96.3137 141.493 96.1942 141.639 96.13C141.786 96.0659 141.952 96.0623 142.101 96.1201C142.25 96.1779 142.37 96.2924 142.434 96.4383C142.498 96.5843 142.502 96.7497 142.444 96.8983C138.962 105.993 132.039 113.623 122.018 114.95C103.241 117.436 95.2058 117.053 76.7367 127.463C76.0842 127.831 75.3721 126.994 75.9981 126.565C79.3103 124.301 82.8086 122.32 86.4557 120.643C82.4618 120.063 73.1513 118.433 67.3767 116.539C64.5248 121.465 54.3061 136.51 50.5305 141.44C69.525 151.524 114.737 153.947 140.271 146.37C175.069 136.044 173.976 97.8613 163.239 67.8844Z" fill="#199B65"/>
<path d="M95.2118 32.0816C95.7235 34.9716 97.1452 40.3555 98.4799 42.8825C101.683 48.949 108.009 48.5299 110.375 45.4878C110.437 45.3975 110.464 45.2887 110.454 45.1802C110.443 45.0717 110.395 44.9702 110.318 44.8932C110.24 44.8161 110.139 44.7684 110.03 44.7581C109.921 44.7478 109.812 44.7756 109.721 44.8367C106.404 47.1793 102.991 47.0467 100.434 43.8464C98.5063 41.4358 96.561 35.0914 95.8582 32.0314C95.7601 31.6013 95.0804 31.66 95.1657 32.1096L95.2118 32.0816Z" fill="#191919"/>
<path d="M94.7538 29.6386C91.0414 29.3377 88.6653 27.7295 87.9822 24.831C86.9938 20.6346 91.4081 20.0557 93.9692 21.8084C96.016 23.2084 97.4351 22.4604 98.3357 21.3333C99.0488 20.4213 100.049 19.775 101.175 19.4984C102.302 19.2218 103.489 19.331 104.545 19.8084C106.099 20.5394 107.218 20.5122 108.415 19.5678C109.143 19.0655 110.002 18.7852 110.888 18.7609C111.773 18.7366 112.646 18.9694 113.401 19.431C113.816 19.6863 114.163 20.0378 114.411 20.4556C114.66 20.8733 114.804 21.3449 114.83 21.83C114.857 22.3151 114.765 22.7994 114.562 23.2415C114.36 23.6835 114.054 24.0703 113.669 24.3686C112.293 25.3994 110.763 26.2064 109.134 26.7597C109.846 28.2047 110.532 29.58 111.963 30.4852C112.128 30.1348 112.38 29.8325 112.696 29.6077C113.012 29.3828 113.381 29.243 113.767 29.2017C113.959 28.2496 113.941 27.2674 113.715 26.3228C113.663 25.7363 114.368 25.704 114.552 26.1987C114.82 27.2405 114.851 28.329 114.643 29.3845C116.421 30.3195 116.107 33.9447 114.512 35.6643C115.617 38.1981 116.116 43.0185 116.355 45.8269C116.461 47.0577 113.186 50.0301 111.048 50.8036C108.193 51.8355 105.012 51.453 103.859 49.2991C103.611 48.8359 104.289 48.4976 104.571 48.9277C106.277 51.5321 112.594 50.7977 115.283 45.9374C115.025 42.5354 114.485 39.1604 113.669 35.847C113.447 35.3064 113.413 35.371 114.042 34.4335C115.388 32.4198 114.846 29.9982 113.774 30.0687C112.466 30.1537 112.571 32.0688 111.748 31.5928C110.117 30.4983 108.898 28.8939 108.283 27.0325C103.493 28.73 97.3942 29.8528 94.7538 29.6386Z" fill="#191919"/>
<path d="M101.31 39.0583C101.264 38.1395 101.238 37.2147 101.165 36.2958C101.156 36.2236 101.12 36.1573 101.066 36.1093C101.011 36.0613 100.94 36.0348 100.867 36.0348C100.794 36.0348 100.723 36.0613 100.668 36.1093C100.614 36.1573 100.578 36.2236 100.568 36.2958C100.497 37.4059 100.525 38.5202 100.654 39.6253C100.752 40.1353 102.287 39.961 102.686 39.723C102.731 39.6955 102.769 39.6593 102.8 39.6167C102.83 39.5741 102.852 39.5258 102.863 39.4748C102.875 39.4237 102.876 39.3709 102.867 39.3194C102.858 39.2679 102.838 39.2187 102.81 39.1748C102.626 38.8824 102.4 39.0388 101.31 39.0583Z" fill="#191919"/>
<path d="M104.813 41.9763C107.297 41.7485 107.844 39.2223 107.466 38.8169C107.315 38.6545 106.742 38.4522 106.669 39.332C106.561 40.635 105.826 41.0252 104.707 41.4493C104.514 41.4493 104.426 41.967 104.813 41.9763Z" fill="#191919"/>
<path d="M96.9832 33.6905C96.8322 34.2311 97.1819 34.5295 97.5452 33.9056C97.7698 33.5118 98.1224 33.206 98.5447 33.0386C99.2381 32.7266 98.8262 32.1665 98.3093 32.3288C97.7147 32.598 97.2468 33.085 97.0028 33.6888L96.9832 33.6905Z" fill="#191919"/>
<path d="M105.251 31.28C104.341 30.8729 102.454 30.759 102.747 31.6447C102.898 32.1011 103.447 31.8453 103.95 31.8793C104.499 31.9185 105.041 32.0236 105.564 32.1921C105.937 32.3111 106.628 31.8971 105.251 31.28Z" fill="#191919"/>
<path d="M98.7144 36.1785C97.9903 35.9601 98.4671 37.893 99.0282 37.4365C99.3489 37.1756 98.9899 36.2618 98.7144 36.1785Z" fill="#191919"/>
<path d="M104.624 35.632C104.314 34.5763 103.316 35.037 104.087 36.2831C104.251 36.5832 104.886 36.5296 104.624 35.632Z" fill="#191919"/>
<path d="M91.0022 84.7884C91.9403 86.6779 94.9252 88.9381 96.8868 88.7426C96.995 88.7189 97.0893 88.6535 97.1492 88.5606C97.209 88.4677 97.2293 88.3549 97.2057 88.247C97.0829 87.6852 95.6459 87.6843 93.9061 86.411C91.7501 84.8326 91.7961 83.0714 90.2849 83.8049C87.8518 84.9864 86.9443 85.0451 88.2782 88.3651C88.3213 88.465 88.4003 88.5452 88.4996 88.5901C88.5989 88.635 88.7114 88.6414 88.8152 88.6081C88.919 88.5747 89.0067 88.504 89.0609 88.4097C89.1152 88.3155 89.1323 88.2044 89.1088 88.0982C88.8763 87.3728 88.7786 86.6112 88.8206 85.8509C91.1616 84.6405 90.9655 84.7034 91.0022 84.7884Z" fill="#191919"/>
<path d="M84.7866 75.1477C84.3483 75.1477 84.3218 75.8991 84.7866 75.9229C87.6488 76.0682 87.6675 75.6058 89.392 77.1605C89.9446 77.6586 90.9015 78.6327 91.3535 77.8116C91.4023 77.7009 91.4134 77.5773 91.3851 77.4597C91.3568 77.3421 91.2905 77.237 91.1966 77.1605C88.4121 75.3687 89.3664 74.9785 84.8242 75.1281L84.7866 75.1477Z" fill="#191919"/>
<path d="M78.9958 80.4891C80.9753 79.0266 83.3505 78.1914 85.8126 78.0921C88.934 77.9331 89.5293 78.3666 92.7735 79.271C93.6263 79.5073 96.4526 80.138 97.0027 80.5282C97.3439 80.7696 97.1008 81.2583 96.7469 81.3102C95.894 81.4351 89.4124 79.4665 88.4265 78.9905C87.8705 79.3492 82.9487 78.6658 79.4589 81.1079C79.3721 81.1652 79.2664 81.1867 79.1641 81.1677C79.0618 81.1487 78.9708 81.0908 78.9106 81.0062C78.8503 80.9217 78.8254 80.817 78.8412 80.7145C78.8569 80.612 78.912 80.5195 78.9949 80.4568L78.9958 80.4891Z" fill="#191919"/>
<path d="M80.7535 84.8801C82.3304 82.3463 84.0216 81.8771 86.5384 80.7627C86.9494 80.4304 86.7089 79.7011 86.1913 79.8277C84.885 80.1241 83.6582 80.6977 82.5946 81.5094C81.5309 82.3212 80.6554 83.352 80.0278 84.5316C79.7856 85 80.4883 85.3102 80.7535 84.8801Z" fill="#191919"/>
<path d="M83.7794 88.2674C83.7342 88.7953 82.8711 88.8344 82.9368 88.2674C83.3265 84.9057 84.8403 83.1564 88.4206 81.3229C88.8649 81.0951 89.409 81.8253 88.9826 82.2154C88.0786 83.045 84.1384 84.1373 83.7794 88.2674Z" fill="#191919"/>
<path d="M81.388 77.9679C81.8579 77.8514 81.6226 77.1536 81.1978 77.1017C80.1089 77.1706 79.0296 77.3474 77.9758 77.6296C81.1978 71.1152 84.3559 62.2352 88.8069 56.6014C92.9185 51.3952 97.7618 49.991 100.912 49.1215C101.356 48.9982 101.075 48.3046 100.644 48.3786C87.2002 50.6889 83.5807 63.3657 76.8918 77.8685C75.807 78.1235 74.7162 78.3971 73.6237 78.7091C73.0805 78.8638 73.2511 79.7053 73.8063 79.5693C73.8924 79.571 80.3757 78.2195 81.388 77.9679Z" fill="#191919"/>
<path d="M124.964 104.768C124.487 105.165 124.531 107.208 122.487 110.103C122.174 110.547 122.87 112.102 124.846 108.025C125.076 107.551 125.944 105.516 125.699 104.977C125.67 104.91 125.627 104.85 125.572 104.802C125.517 104.753 125.452 104.718 125.382 104.698C125.311 104.678 125.237 104.674 125.165 104.686C125.093 104.698 125.024 104.726 124.964 104.768Z" fill="#191919"/>
<path d="M136.16 56.7801C141.919 63.8742 140.083 81.2745 137.643 90.6543C135.82 97.6702 133.311 104.43 124.977 103.475C118.082 102.684 100.695 97.8036 97.198 91.5995C96.6437 90.6152 97.3592 89.8366 97.9502 89.0588C99.9229 86.4621 100.147 82.4399 98.172 80.0106C97.7805 79.5278 97.9161 78.9056 98.4926 78.8903C103.951 78.7203 114.867 82.5376 120.062 84.4153C120.949 78.8307 121.404 73.1866 121.425 67.5326C121.425 67.1416 122.086 67.0753 122.13 67.4867C122.514 73.269 122.141 79.0765 121.021 84.7629C122.504 85.3163 123.989 85.8739 125.456 86.4561C125.784 86.5862 125.561 87.1081 125.234 87.0299C117.6 84.4629 106.195 80.32 99.2338 79.8635C102.763 83.8245 99.2926 90.5412 97.7762 90.86C100.743 95.6157 114.881 101.284 125.228 102.481C132.888 103.369 135.065 96.5014 136.673 90.2412C138.975 81.2711 140.478 64.0918 135.15 57.2918C130.83 51.7795 123.848 49.1955 117.724 46.2503C117.235 46.0148 117.587 45.3195 118.084 45.5006C124.615 47.8848 131.81 51.3656 136.182 56.7971L136.16 56.7801Z" fill="#191919"/>
<path d="M88.2491 73.7731C88.1357 74.2678 87.3716 74.2364 87.4321 73.7009C87.7521 70.4662 88.5571 67.2975 89.8201 64.3008C91.6264 60.1757 92.208 61.9887 92.075 62.2293C89.9446 66.1359 89.4235 68.623 88.2491 73.7731Z" fill="#191919"/>
<path d="M40.5113 150.225C38.6915 150.662 36.9065 151.233 35.1708 151.932C25.8902 155.827 24.9904 156.252 18.0986 152.782C16.7946 152.125 15.4471 151.722 17.0658 150.255C18.5651 148.895 29.7263 143.434 31.9223 142.215C32.0077 142.16 32.0698 142.075 32.0968 141.977C32.1237 141.879 32.1138 141.774 32.0688 141.683C32.0238 141.592 31.9469 141.52 31.8525 141.481C31.7581 141.443 31.6528 141.44 31.5565 141.473C28.7677 142.466 17.8257 147.612 15.981 149.746C14.671 151.261 15.4923 152.636 17.0138 153.466C26.5452 158.663 27.9054 156.162 36.2028 152.749C38.5438 151.786 40.8729 151.439 42.2426 150.84C43.7487 150.181 45.3725 148.552 44.8565 146.756C44.7141 146.26 43.8502 146.209 43.8698 146.815C43.7308 146.811 44.4207 149.223 40.5113 150.225Z" fill="#191919"/>
<path d="M23.3735 142.786C23.8502 142.85 23.857 143.568 23.3735 143.551C17.1119 143.375 10.2158 142.797 3.9551 142.124C-0.345782 141.663 0.569319 137.924 3.40587 137.173C6.91617 136.244 15.8241 133.656 19.1579 133.844C19.6696 133.844 19.8112 134.675 19.2687 134.756C14.033 135.566 8.85455 136.708 3.76492 138.176C1.32323 138.869 1.41875 140.811 3.90905 141.056C10.3847 141.688 16.8381 141.896 23.3735 142.786Z" fill="#191919"/>
<path d="M96.0808 95.8622C93.2962 94.9382 74.4075 89.6283 73.6621 89.1336C73.008 88.7163 70.1978 60.9332 70.0085 58.588C69.8192 56.2429 68.6491 53.5271 65.433 52.6015C62.2169 51.6758 36.9293 48.836 34.3605 48.6532C31.7918 48.4705 30.9551 49.3052 31.014 52.9721C31.0728 56.639 32.4587 86.2411 36.9421 87.4991C36.7476 87.783 58.525 92.2454 96.0808 99.3225C98.2376 99.7254 98.8653 96.7878 96.0808 95.8622ZM50.6814 74.698C46.5306 73.9551 45.4262 62.9681 49.4652 63.4152H49.4524C53.709 63.8844 54.8313 75.4409 50.6814 74.698Z" fill="#191919"/>
<path d="M31.321 137.991C36.5174 127.236 50.7923 97.3675 58.4064 93.2569C51.5308 91.8697 45.6223 90.6967 42.8182 90.1969C36.2163 91.5518 32.1449 100.132 19.9415 132.592C21.5363 136.247 25.5703 137.308 31.3347 137.992L31.321 137.991ZM99.2073 98.6833C101.936 99.6285 116.008 105.804 116.253 113.829C109.942 113.178 90.2072 117.824 87.4944 119.302C80.9208 118.438 74.4104 117.15 68.0043 115.445C68.5484 114.511 69.0866 113.579 69.6188 112.651C69.705 112.528 69.7389 112.376 69.713 112.228C69.6871 112.081 69.6035 111.949 69.4805 111.863C69.3576 111.777 69.2054 111.743 69.0572 111.768C68.909 111.793 68.777 111.876 68.69 111.999C61.8417 121.519 54.1405 134.31 46.9314 143.554C42.7747 144.537 34.4023 144.668 32.428 139.111C38.7945 127.926 51.35 96.7683 61.1347 93.806C75.2527 96.6663 92.1551 100.144 95.1631 100.66C98.8781 101.294 99.1655 99.875 99.2116 98.685L99.2073 98.6833Z" fill="#191919"/>
</svg>
