<svg width="582" height="384" viewBox="0 0 582 384" fill="none" xmlns="http://www.w3.org/2000/svg">
<g clip-path="url(#clip0_2489_61)">
<path d="M76.6666 40.8176C107.292 16.5761 149.105 12.1398 184.818 25.617C232.269 43.525 267.193 88.8768 313.278 110.656C345.645 125.949 382.811 128.689 416.75 118.278C433.265 113.211 449.329 105.094 466.464 104.55C481.646 104.066 496.643 109.699 509.545 118.479C547.522 144.313 566.584 199.413 553.785 246.363C546.934 271.501 532.22 293.329 515.085 311.639C479.676 349.467 432.71 374.051 383.621 380.455C356.223 384.027 328.427 382.092 301.127 377.699C241.634 368.131 183.023 346.461 134.037 308.236C75.3987 262.471 17.2771 182.652 39.2339 99.4509C45.3829 76.1607 58.7148 55.0233 76.6666 40.8122V40.8176Z" fill="#45C396"/>
<path d="M536.383 108.024C534.451 103.099 532.852 96.8468 536.1 92.84C537.319 91.3395 539.06 90.4425 540.84 89.9641C549.427 87.6481 557.845 94.2426 563.831 101.375C569.397 108.008 574.148 115.462 577.908 123.475C579.829 127.563 581.516 131.885 581.918 136.463C582.321 141.04 581.287 145.944 578.381 149.255C558.792 171.54 541.738 121.675 536.389 108.03L536.383 108.024Z" fill="#199B65"/>
<path d="M364.287 238.181C374.909 227.797 389.253 261.759 394.216 274.725L404.152 263.33C397.198 255.045 372.107 223.002 392.692 214.885C406.862 209.296 406.541 248.157 406.046 261.156L419.465 245.77C415.999 237.778 399.418 196.852 422.333 195.074C437.684 193.884 425.511 231.766 421.332 243.623L435.61 227.253C440.91 214.461 456.207 180.82 466.551 191.508C481.113 206.546 449.562 224.209 437.863 230.021L424.237 245.64C436.241 238.507 468.428 220.865 470.317 235.56C473.206 258.073 430.762 250.625 421.527 248.749L406.987 265.418C417.093 262.814 459.673 252.745 456.936 268.587C452.991 291.416 413.109 270.545 405.954 266.598L395.598 278.471C395.658 278.64 395.718 278.797 395.761 278.928C407.167 280.646 448.382 287.855 439.887 301.114C427.736 320.072 400.338 287.844 394.156 280.129L371.214 306.431L368.564 304.121L391.838 277.438C380.258 271.279 349.328 252.789 364.276 238.181H364.287Z" fill="#F7B21A"/>
<path d="M419.209 361.922C407.521 361.922 396.132 358.715 391.914 349.097C382.636 327.938 407.51 309.318 423.671 301.653C429.782 298.755 436.187 296.303 442.374 293.933C448.023 291.769 453.867 289.534 459.439 286.968C474.251 280.162 487.572 270.811 499.027 259.182C499.739 258.454 500.806 258.253 501.747 258.655C502.694 259.068 503.276 259.992 503.233 261.02C502.558 277.27 501.421 293.052 494.983 307.47C490.102 318.397 482.032 328.797 469.598 340.203C463.194 346.08 454.509 353.349 444.186 357.432C437.988 359.883 428.504 361.917 419.209 361.917V361.922ZM460.391 289.029C454.748 291.622 448.871 293.873 443.19 296.047C437.041 298.402 430.68 300.837 424.645 303.702C409.224 311.02 385.417 328.623 393.993 348.189C401.089 364.38 431.758 359.916 443.348 355.333C453.328 351.386 461.795 344.286 468.059 338.54C480.259 327.351 488.154 317.19 492.905 306.551C499.179 292.503 500.3 276.954 500.964 260.933C500.964 260.895 500.969 260.797 500.844 260.743C500.73 260.688 500.67 260.753 500.643 260.781C488.992 272.605 475.448 282.114 460.386 289.034L460.391 289.029Z" fill="#F7B21A"/>
<path d="M216.924 298.619C206.302 288.235 191.958 322.197 186.995 335.163L177.059 323.768C184.013 315.483 209.104 283.44 188.519 275.323C174.349 269.735 174.67 308.595 175.165 321.594L161.746 306.208C165.212 298.217 181.793 257.29 158.878 255.513C143.527 254.322 155.7 292.204 159.879 304.061L145.601 287.691C140.301 274.899 125.004 241.258 114.66 251.946C100.098 266.984 131.648 284.647 143.348 290.459L156.974 306.078C144.969 298.945 112.782 281.304 110.894 295.999C108.005 318.511 150.449 311.063 159.684 309.188L174.223 325.856C164.118 323.252 121.538 313.183 124.275 329.026C128.22 351.854 168.102 330.983 175.257 327.036L185.613 338.909C185.553 339.078 185.493 339.235 185.449 339.366C174.044 341.084 132.829 348.293 141.324 361.552C153.475 380.51 180.873 348.276 187.055 340.567L209.996 366.869L212.647 364.559L189.373 337.876C200.953 331.717 231.883 313.227 216.935 298.619H216.924Z" fill="#026D39"/>
<path d="M178.653 281.864C175.807 265.777 170.001 250.217 161.632 236.186C161.011 235.147 162.013 233.897 163.172 234.25C178.228 238.86 193.432 243.982 205.681 253.789C216.418 262.39 224.221 274.111 230.653 286.262C235.403 295.232 239.55 304.719 240.78 314.793C242.494 328.863 238.14 359.144 220.412 361.944C198.199 365.45 186.995 336.952 183.806 320.142C181.406 307.481 180.895 294.552 178.653 281.864Z" fill="#026D39"/>
<path d="M457.611 89.7683L457.594 88.5832C460.277 88.5397 462.905 87.8003 465.202 86.4412L465.806 87.4633C463.33 88.9257 460.5 89.7249 457.611 89.7683ZM449.35 87.7242C446.831 86.3379 444.698 84.31 443.19 81.8527L444.203 81.233C445.606 83.5109 447.582 85.3974 449.927 86.6858L449.356 87.7242H449.35ZM471.781 81.4015L470.752 80.8143C472.074 78.5038 472.776 75.8616 472.776 73.1814C472.776 72.8552 472.765 72.529 472.744 72.2028L473.93 72.1322C473.952 72.4801 473.963 72.828 473.963 73.1814C473.963 76.0682 473.212 78.9116 471.786 81.4069L471.781 81.4015ZM440.747 73.7088C440.742 73.5294 440.742 73.3554 440.742 73.176C440.742 70.4795 441.406 67.7938 442.668 65.4235L443.713 65.978C442.543 68.1798 441.928 70.6697 441.928 73.1814C441.928 73.35 441.928 73.5076 441.933 73.6707L440.747 73.7088ZM470.235 64.7113C468.76 62.4769 466.725 60.6556 464.342 59.4433L464.881 58.3886C467.444 59.6933 469.637 61.6559 471.225 64.0589L470.235 64.7113ZM449.078 60.1718L448.442 59.1714C450.868 57.6274 453.676 56.7413 456.56 56.6054L456.615 57.7905C453.938 57.9156 451.336 58.7365 449.078 60.1718Z" fill="#049365"/>
<path d="M48.6315 302.696C45.8345 302.539 43.0375 302.158 40.3222 301.555L40.5779 300.397C43.2334 300.984 45.9651 301.359 48.6968 301.511L48.6315 302.696ZM57.017 302.49L56.8918 301.31C59.6072 301.022 62.3171 300.511 64.9454 299.788L65.261 300.929C62.5729 301.669 59.7976 302.191 57.017 302.484V302.49ZM32.3067 299.076C29.7165 298.032 27.1916 296.77 24.8028 295.324L25.4177 294.313C27.7521 295.732 30.2172 296.966 32.7475 297.983L32.3067 299.081V299.076ZM73.1404 298.059L72.6452 296.982C75.1212 295.841 77.5209 294.487 79.7792 292.959L80.4431 293.943C78.1304 295.509 75.6762 296.896 73.1404 298.059ZM18.0062 290.404C15.884 288.588 13.8978 286.588 12.0967 284.457L13.0054 283.69C14.763 285.772 16.7057 287.729 18.7789 289.502L18.0062 290.404ZM86.9838 288.697L86.1676 287.838C88.1483 285.968 89.993 283.918 91.6527 281.749L92.5941 282.467C90.9018 284.685 89.0136 286.784 86.9838 288.697ZM7.21555 277.634C5.78441 275.242 4.53829 272.708 3.51527 270.115L4.61991 269.68C5.62116 272.214 6.83464 274.682 8.23857 277.025L7.22099 277.634H7.21555ZM97.1215 275.405L96.0767 274.845C97.361 272.436 98.4547 269.908 99.3254 267.321L100.452 267.701C99.5594 270.349 98.4384 272.937 97.127 275.399L97.1215 275.405ZM1.08832 262.096C0.506068 259.378 0.13604 256.583 0 253.784L1.18627 253.724C1.32231 256.453 1.67601 259.188 2.24738 261.841L1.08832 262.091V262.096ZM102.471 259.574L101.301 259.383C101.736 256.703 101.959 253.958 101.959 251.223C101.959 249.554 101.877 247.869 101.714 246.216L102.895 246.102C103.064 247.793 103.145 249.521 103.145 251.223C103.145 254.023 102.917 256.834 102.471 259.574ZM1.44202 245.542L0.261196 245.411C0.571367 242.633 1.11553 239.866 1.87191 237.186L3.01464 237.507C2.27459 240.122 1.74675 242.829 1.44202 245.542ZM100.245 238.154C99.5376 235.522 98.6125 232.929 97.4861 230.445L98.569 229.955C99.7226 232.5 100.675 235.153 101.393 237.844L100.245 238.148V238.154ZM5.88236 229.83L4.81037 229.325C5.99663 226.802 7.40056 224.356 8.98407 222.05L9.96355 222.719C8.41814 224.97 7.04142 227.357 5.88236 229.825V229.83ZM93.5083 223.29C91.9955 221.023 90.2814 218.865 88.4204 216.869L89.2856 216.059C91.1902 218.098 92.9424 220.311 94.4932 222.632L93.5083 223.29ZM15.1385 216.375L14.2842 215.554C16.2214 213.537 18.3273 211.667 20.5583 209.992L21.2712 210.938C19.0945 212.575 17.0322 214.401 15.1385 216.375ZM82.3639 211.351C80.2036 209.682 77.8909 208.176 75.4966 206.883L76.0626 205.839C78.5167 207.165 80.8838 208.704 83.0931 210.411L82.3694 211.346L82.3639 211.351ZM28.1929 206.562L27.6433 205.512C30.1192 204.219 32.7203 203.12 35.3703 202.245L35.7404 203.37C33.1502 204.224 30.6144 205.295 28.1929 206.562ZM67.9873 203.588C65.4134 202.702 62.7416 202.017 60.048 201.56L60.2493 200.391C63.0028 200.859 65.7399 201.56 68.379 202.468L67.9927 203.588H67.9873ZM43.7069 201.451L43.5219 200.283C46.1556 199.875 48.8437 199.663 51.521 199.663H51.891L51.8801 200.848H51.5428C48.9526 200.826 46.2862 201.049 43.7069 201.451Z" fill="#049365"/>
<path d="M546.423 272.545C543.55 272.328 540.807 271.539 538.271 270.191L538.826 269.147C541.215 270.414 543.8 271.164 546.51 271.366L546.423 272.551V272.545ZM554.836 271.447L554.444 270.327C556.996 269.436 559.303 268.049 561.295 266.201L562.1 267.071C559.983 269.028 557.54 270.501 554.836 271.447ZM531.741 264.771C529.946 262.52 528.661 259.971 527.927 257.198L529.075 256.893C529.772 259.508 530.98 261.906 532.672 264.032L531.741 264.771ZM567.019 260.161L565.931 259.688C567.014 257.214 567.563 254.583 567.563 251.859H568.75C568.75 254.746 568.167 257.535 567.019 260.161ZM567.449 249.728C567.161 247.037 566.328 244.482 564.973 242.128L566.002 241.535C567.438 244.031 568.32 246.743 568.625 249.598L567.444 249.723L567.449 249.728ZM528.64 248.913L527.47 248.733C527.9 245.895 528.895 243.22 530.435 240.79L531.437 241.426C529.984 243.721 529.048 246.238 528.64 248.913ZM559.657 236.158C557.48 234.538 555.037 233.408 552.398 232.804L552.664 231.652C555.461 232.293 558.057 233.489 560.37 235.212L559.662 236.164L559.657 236.158ZM536.998 235.675L536.329 234.696C538.712 233.076 541.351 231.989 544.175 231.467L544.393 232.63C541.732 233.125 539.245 234.147 536.998 235.675Z" fill="#049365"/>
<path d="M456.528 7.11101C456.528 11.0362 453.339 14.222 449.41 14.222C445.481 14.222 442.293 11.0362 442.293 7.11101C442.293 3.18582 445.481 0 449.41 0C453.339 0 456.528 3.18582 456.528 7.11101Z" fill="#199B65"/>
<path d="M58.6604 181.885C58.6604 185.484 55.7382 188.404 52.1359 188.404C48.5336 188.404 45.6115 185.484 45.6115 181.885C45.6115 178.286 48.5336 175.367 52.1359 175.367C55.7382 175.367 58.6604 178.286 58.6604 181.885Z" fill="#199B65"/>
<path d="M531.127 233.049C533.747 233.049 535.872 230.926 535.872 228.308C535.872 225.69 533.747 223.567 531.127 223.567C528.506 223.567 526.381 225.69 526.381 228.308C526.381 230.926 528.506 233.049 531.127 233.049Z" fill="#199B65"/>
<path d="M187.245 12.4443C187.245 14.733 185.384 16.5924 183.093 16.5924C180.802 16.5924 178.941 14.733 178.941 12.4443C178.941 10.1555 180.802 8.29617 183.093 8.29617C185.384 8.29617 187.245 10.1555 187.245 12.4443Z" fill="#199B65"/>
<path d="M204.272 22.5182H412.217C418.339 22.5182 423.312 27.4872 423.312 33.6033V372.915C423.312 379.031 418.339 384 412.217 384H204.272C198.15 384 193.177 379.031 193.177 372.915V33.6033C193.177 27.4872 198.15 22.5182 204.272 22.5182Z" fill="#14202E"/>
<path d="M334.935 31.2113H281.553V35.1636H334.935V31.2113Z" fill="#2E3D4C"/>
<path d="M333.548 363.852H282.936V374.122H333.548V363.852Z" fill="#2E3D4C"/>
<path d="M417.778 45.8247H198.711V357.252H417.778V45.8247Z" fill="white"/>
<path d="M417.778 45.8247H198.711V57.6764H417.778V45.8247Z" fill="#026D39"/>
<path d="M218.186 315.304C223.046 315.304 226.985 311.368 226.985 306.513C226.985 301.658 223.046 297.722 218.186 297.722C213.326 297.722 209.387 301.658 209.387 306.513C209.387 311.368 213.326 315.304 218.186 315.304Z" fill="#FCB32B"/>
<path d="M242.504 315.304C247.364 315.304 251.304 311.368 251.304 306.513C251.304 301.658 247.364 297.722 242.504 297.722C237.645 297.722 233.705 301.658 233.705 306.513C233.705 311.368 237.645 315.304 242.504 315.304Z" fill="#FCB32B"/>
<path d="M303.102 299.695H256.245V304.24H303.102V299.695Z" fill="#FCB32B"/>
<path d="M405.518 321.028H210.971V325.573H405.518V321.028Z" fill="#FCB32B"/>
<path d="M405.518 330.314H210.971V334.859H405.518V330.314Z" fill="#FCB32B"/>
<path d="M257.828 339.6H210.971V344.145H257.828V339.6Z" fill="#FCB32B"/>
<path d="M226.738 101.571C227.858 96.8472 224.933 92.11 220.205 90.9906C215.476 89.8712 210.734 92.7936 209.614 97.5178C208.494 102.242 211.419 106.979 216.147 108.099C220.876 109.218 225.618 106.296 226.738 101.571Z" fill="#026D39"/>
<path d="M277.401 92.3453H230.544V96.8902H277.401V92.3453Z" fill="#D6D6D6"/>
<path d="M331.768 308.193H256.245V312.738H331.768V308.193Z" fill="#FCB32B"/>
<path d="M417.778 111.406H198.711V253.626H417.778V111.406Z" fill="#049365"/>
<path d="M357.028 266.342C349.987 266.342 342.869 263.08 337.281 260.52C329.962 257.165 325.255 248.059 326.789 240.225C327.85 234.794 331.872 230.2 336.791 228.792C337.319 228.64 337.858 228.52 338.396 228.406C339.229 228.226 340.012 228.053 340.758 227.759C343.484 226.683 345.617 223.904 346.466 220.316C347.201 217.228 346.989 213.934 346.787 210.743L346.755 210.21C346.412 204.73 346.249 198.929 348.251 193.607C350.096 188.697 354.667 183.538 360.712 183.081C361.436 183.027 362.165 183.043 362.873 183.054C363.874 183.076 364.821 183.092 365.751 182.929C370.099 182.163 372.869 177.628 375.094 173.986C377.325 170.333 380.911 165.5 386.027 165.576C389.194 165.635 392.284 167.81 393.726 170.996C394.962 173.725 395.054 177.09 393.993 180.472C393.699 181.412 393.318 182.369 392.954 183.293C391.8 186.224 390.706 188.996 391.806 191.573C392.295 192.726 393.182 193.661 394.118 194.645C394.461 195.004 394.804 195.368 395.125 195.738C399.723 201.044 400.36 209.519 396.61 215.451C394.129 219.376 390.124 222.105 386.25 224.747C381.363 228.08 376.749 231.227 375.192 236.495C374.387 239.23 374.588 242.073 374.795 245.08C374.975 247.657 375.165 250.321 374.654 252.908C373.625 258.138 369.702 262.749 364.407 264.934C362.002 265.929 359.521 266.337 357.028 266.337V266.342ZM361.899 184.228C361.529 184.228 361.164 184.239 360.799 184.267C355.276 184.68 351.075 189.469 349.361 194.025C347.446 199.125 347.609 204.779 347.941 210.134L347.973 210.666C348.18 213.939 348.393 217.326 347.62 220.583C346.684 224.546 344.279 227.639 341.193 228.852C340.361 229.178 339.49 229.374 338.647 229.553C338.135 229.667 337.618 229.776 337.118 229.923C332.612 231.211 328.928 235.441 327.948 240.442C326.539 247.651 331.034 256.35 337.771 259.438C345.138 262.814 355.238 267.44 363.945 263.841C368.875 261.808 372.526 257.53 373.478 252.68C373.957 250.245 373.772 247.662 373.598 245.161C373.386 242.182 373.168 239.1 374.039 236.158C375.715 230.483 380.721 227.068 385.564 223.763C389.335 221.192 393.242 218.528 395.587 214.815C399.07 209.307 398.477 201.435 394.211 196.51C393.901 196.151 393.569 195.803 393.242 195.455C392.273 194.438 391.278 193.384 390.701 192.03C389.411 189.002 390.646 185.876 391.838 182.848C392.197 181.94 392.567 181.005 392.85 180.102C393.824 177.003 393.748 173.937 392.633 171.474C391.376 168.696 388.709 166.799 385.994 166.75C381.477 166.701 378.174 171.186 376.09 174.589C373.739 178.439 370.817 183.223 365.942 184.082C364.897 184.267 363.852 184.245 362.835 184.223C362.513 184.218 362.198 184.212 361.882 184.212L361.899 184.228Z" fill="#F9F9FA"/>
<path d="M396.768 158.519C394.559 158.519 392.763 156.725 392.763 154.518C392.763 152.31 394.559 150.516 396.768 150.516C398.978 150.516 400.773 152.31 400.773 154.518C400.773 156.725 398.978 158.519 396.768 158.519ZM396.768 151.702C395.217 151.702 393.95 152.963 393.95 154.518C393.95 156.073 395.212 157.334 396.768 157.334C398.325 157.334 399.587 156.073 399.587 154.518C399.587 152.963 398.325 151.702 396.768 151.702Z" fill="#F9F9FA"/>
<path d="M379.127 137.48C379.127 138.3 378.463 138.964 377.641 138.964C376.819 138.964 376.161 138.3 376.161 137.48C376.161 136.659 376.825 135.995 377.641 135.995C378.457 135.995 379.127 136.659 379.127 137.48Z" fill="#F9F9FA"/>
<path d="M219.715 224.888C220.779 224.888 221.642 224.027 221.642 222.964C221.642 221.901 220.779 221.039 219.715 221.039C218.651 221.039 217.789 221.901 217.789 222.964C217.789 224.027 218.651 224.888 219.715 224.888Z" fill="#F9F9FA"/>
<path d="M396.474 233.478C394.428 233.478 392.769 231.815 392.769 229.776C392.769 227.737 394.434 226.074 396.474 226.074C398.515 226.074 400.18 227.737 400.18 229.776C400.18 231.815 398.515 233.478 396.474 233.478ZM396.474 227.253C395.087 227.253 393.955 228.384 393.955 229.77C393.955 231.157 395.087 232.288 396.474 232.288C397.862 232.288 398.994 231.157 398.994 229.77C398.994 228.384 397.862 227.253 396.474 227.253Z" fill="#F9F9FA"/>
<path d="M275.426 222.42C275.426 222.42 263.961 241.383 260.598 257.78H337.901C337.901 257.78 331.97 229.336 325.249 222.621L275.426 222.426V222.42Z" fill="#026D39"/>
<path d="M273.543 227.998C291.468 227.574 309.594 227.569 327.518 227.998C309.594 228.428 291.468 228.422 273.543 227.998Z" fill="white"/>
<path d="M281.406 228.444C280.019 233.13 276.819 239.078 271.497 239.866C270.735 239.931 269.974 239.888 269.245 239.703C275.53 240.089 279.007 233.277 281.406 228.444Z" fill="white"/>
<path d="M304.539 227.851C304.718 235.212 304.805 243.28 304.827 250.669V250.788L304.74 250.875L298.531 257.116L297.992 257.655V256.893C298.025 247.265 298.063 237.632 298.308 228.004C298.433 232.82 298.493 237.632 298.542 242.448C298.602 247.265 298.591 252.077 298.618 256.893L298.085 256.671L304.332 250.467L304.245 250.669C304.267 243.275 304.354 235.223 304.533 227.851H304.539Z" fill="white"/>
<path d="M322.033 227.998C322.251 233.88 324.248 239.062 331.077 238.518C324.21 240.23 321.119 233.935 322.033 227.998Z" fill="white"/>
<path d="M364.364 144.504L354.824 144.792C354.824 144.792 351.739 158.813 347.516 177.514C346.118 175.296 344.812 173.203 343.609 171.246C339.354 179.58 334.141 187.333 328.525 194.813C331.709 200.212 335.371 206.111 339.523 212.243C339.583 212.33 339.637 212.412 339.697 212.499C347.065 223.366 364.07 219.37 365.806 206.361C365.827 206.214 365.844 206.067 365.865 205.915C368.439 186.425 368.88 165.054 364.374 144.509L364.364 144.504Z" fill="#F6BA8A"/>
<path d="M358.726 130.401C358.508 127.917 358.187 125.329 357.785 125.41C357.115 125.552 356.718 127.286 356.424 129.477C357.202 129.722 357.981 130.026 358.726 130.401Z" fill="#F18665"/>
<path d="M362.758 133.451C362.72 130.782 362.53 125.568 361.643 125.09C360.952 124.715 360.184 128.047 359.662 130.912C360.87 131.624 361.947 132.489 362.758 133.451Z" fill="#F18665"/>
<path d="M369.408 129.923C368.777 130.379 367.705 131.668 366.339 135.283C366.339 135.283 367.269 127.134 366.339 125.976C365.604 125.057 363.792 131.26 363.068 133.875C363.526 134.5 363.885 135.158 364.075 135.838C364.364 136.882 364.434 137.827 364.331 138.681C365.457 141.742 363.575 145.33 360.31 146.455C359.042 146.89 357.73 146.955 356.435 146.781C355.423 147.124 354.351 147.227 353.377 147.07C354.112 148.358 354.993 149.674 356.065 150.973L362.704 149.706C362.704 149.706 369.974 135.995 370.061 130.26C370.066 129.896 369.696 129.705 369.397 129.923H369.408Z" fill="#F6BA8A"/>
<path d="M346.107 192.296C346.276 187.365 346.738 182.451 347.315 177.552L347.827 177.721C346.95 179.107 346.074 180.494 345.155 181.853C344.85 182.309 344.545 182.761 344.23 183.206C345.394 180.896 346.678 178.618 347.963 176.373C347.544 181.7 346.989 187.023 346.107 192.296Z" fill="#151C45"/>
<path d="M349.481 126.487L360.93 147.901C361.425 148.826 362.492 149.271 363.498 148.994C365.61 148.407 368.956 147.07 369.783 144.379C371.013 140.366 360.68 120.365 360.68 120.365L349.481 126.487Z" fill="#E0DFDF"/>
<path d="M337.183 98.6952L333.314 99.8531C332.149 100.201 331.42 101.354 331.6 102.555C332.128 106.062 333.678 113.7 338.075 123.866C338.565 125.003 339.833 125.595 341.019 125.236L344.447 124.214L337.183 98.6952Z" fill="#E59A24"/>
<path d="M356.234 88.3549L338.015 93.8023C335.338 94.6015 335.441 102.849 338.249 112.227C341.057 121.599 345.503 128.553 348.18 127.748L366.399 122.301L356.234 88.3549Z" fill="#FCB32B"/>
<path d="M366.165 103.876C368.973 113.249 369.076 121.496 366.399 122.301C363.721 123.1 359.27 116.152 356.468 106.779C353.66 97.4067 353.557 89.1595 356.234 88.3548C358.911 87.5557 363.362 94.5036 366.165 103.876Z" fill="#E59A24"/>
<path d="M390.603 66.4455L356.849 92.4594L356.963 94.7754C357.398 103.583 360.228 112.357 365.006 119.707L407.075 119.958L390.603 66.4455Z" fill="#E0DFDF"/>
<path d="M412.881 89.0018C417.354 103.947 415.455 117.718 408.631 119.756C403.347 121.338 396.659 115.418 391.833 105.719C390.429 102.898 389.183 99.7553 388.171 96.3846C387.262 93.3402 386.614 90.3446 386.217 87.4904C384.672 76.3129 386.99 67.2501 392.42 65.6246C399.244 63.5859 408.402 74.0513 412.875 88.9963L412.881 89.0018Z" fill="#C4C4C4"/>
<path d="M398.945 93.1716C401.726 102.452 402.041 111.281 400.251 117.131C395.538 113.227 390.951 105.676 388.176 96.3901C385.395 87.1044 385.074 78.2755 386.87 72.4312C391.582 76.3346 396.17 83.886 398.945 93.1716Z" fill="#919191"/>
<path d="M399.097 86.4738L402.749 98.6788L391.827 105.725C390.423 102.903 389.177 99.7607 388.165 96.3901C387.256 93.3456 386.609 90.35 386.212 87.4959L399.092 86.4792L399.097 86.4738Z" fill="#EBEBEB"/>
<path d="M403.712 91.7418C404.718 95.1125 404.294 98.2167 402.754 98.6734C401.214 99.1355 399.152 96.776 398.139 93.4054C397.127 90.0347 397.557 86.9305 399.097 86.4738C400.637 86.0117 402.7 88.3711 403.712 91.7418Z" fill="#FCB32B"/>
<path d="M360.244 90.4697C361.637 99.7444 363.683 109.291 368.864 117.25C369.386 118.076 370.055 118.81 370.627 119.604C363.64 112.553 360.756 100.147 360.244 90.4697Z" fill="#A66909"/>
<path d="M345.514 124.247C350.46 122.317 355.537 120.8 360.739 119.702C355.793 121.637 350.711 123.149 345.514 124.247Z" fill="#A66909"/>
<path d="M402.155 91.8505C402.33 92.7476 402.89 94.9548 401.856 95.4387C401.453 95.5365 401.138 95.2593 400.888 95.0092C399.658 93.5467 398.95 90.9318 399.783 89.1486C400.975 87.7025 401.965 91.0133 402.155 91.8505ZM402.155 91.8505C401.927 90.9807 401.595 90.0945 400.975 89.4313C400.784 89.2247 400.501 89.0398 400.322 89.1051C399.331 89.714 400.615 95.0418 401.785 95.1342C401.976 95.1125 402.145 94.8189 402.221 94.5471C402.466 93.6718 402.357 92.7313 402.161 91.856L402.155 91.8505Z" fill="#A66909"/>
<path d="M393.46 66.7663C399.065 68.1254 403.217 71.7679 405.926 76.775C411.227 85.9954 416.63 99.353 414.034 110.047C413.164 113.825 411.052 118.723 406.541 118.8C405.856 118.8 405.165 118.68 404.533 118.424C407.216 119.387 410.024 117.919 411.444 115.587C418.039 103.979 411.357 87.7677 405.507 77.0196C402.977 72.0615 398.874 68.332 393.46 66.7717V66.7663Z" fill="#151C45"/>
<path d="M354.313 149.184C354.313 149.184 350.357 140.491 350.754 138.518C351.151 136.544 355.646 131.7 357.774 132.494C359.901 133.283 356.636 139.409 356.636 139.409C356.636 139.409 361.926 145.83 361.333 149.087C360.739 152.343 354.313 149.184 354.313 149.184Z" fill="#F6BA8A"/>
<path d="M315.716 142.182C315.716 142.182 332.96 151.305 335.926 154.86C338.891 158.416 346.798 175.204 346.798 175.204L329.597 198.315C329.597 198.315 311.226 170.952 315.716 142.177V142.182Z" fill="#FCB32B"/>
<path d="M319.138 148.173C318.409 146.95 318.17 145.749 318.29 144.645C317.316 143.944 316.445 143.161 315.667 142.215C315.362 141.117 314.655 138.436 314.127 135.408C313.659 132.701 313.327 129.732 313.561 127.4V127.389C313.67 126.237 313.915 125.242 314.355 124.508L288.149 109.786C288.17 109.873 288.176 109.954 288.198 110.041C288.611 112.471 291.773 131.543 288.53 141.66C286.56 142.563 284.138 143.21 281.129 143.313C277.891 143.427 274.719 144.58 272.357 146.798C269.81 149.19 267.547 153.218 267.509 159.927C269.908 160.226 272.303 160.699 274.697 161.129C281.847 162.412 288.981 163.782 296.148 164.967C305.388 166.494 314.867 166.831 324.21 167.864C323.802 160.911 322.436 153.697 319.138 148.173Z" fill="#F6BA8A"/>
<path d="M314.127 135.414C299.881 137.213 292.665 120.213 292.398 119.577C295.027 123.747 298.841 125.856 302.569 126.862C307.156 128.112 311.602 127.694 313.474 127.416C313.501 127.406 313.534 127.406 313.561 127.395C313.327 129.727 313.659 132.701 314.127 135.403V135.414Z" fill="#EBA771"/>
<path d="M287.882 141.432C287.882 141.432 304.686 159.998 309.632 157.035C314.573 154.072 315.819 142.748 315.819 142.748C315.819 142.748 332.764 157.432 335.137 162.172C337.509 166.913 337.313 176.199 331.382 190.812C325.451 205.431 327.676 225.182 327.676 225.182H273.451C273.451 225.182 278 215.701 276.612 204.637C275.23 193.574 262.181 158.22 262.181 158.22C262.181 158.22 259.613 142.024 287.882 141.432Z" fill="#F7B21A"/>
<path d="M287.387 143.405C291.849 148.396 303.461 161.525 310.731 158.486C315.999 156.067 316.728 148.244 316.848 143.112C317.06 147.037 316.722 151.098 315.084 154.73C308.277 168.125 292.545 150.136 287.392 143.411L287.387 143.405Z" fill="#69649B"/>
<path d="M326.506 165.266C327.334 167.913 328.52 170.392 329.777 172.855C333.591 179.803 333.064 185.789 330.413 193.036C329.929 194.335 329.429 195.623 328.884 196.896C329.292 195.575 329.733 194.264 330.114 192.938C332.372 185.647 332.895 180.053 329.331 173.067C328.177 170.561 327.072 167.984 326.501 165.271L326.506 165.266Z" fill="#69649B"/>
<path d="M301.127 196.33C304.974 195.46 309.153 195.814 312.794 197.325C308.892 196.662 305.083 196.336 301.127 196.33Z" fill="#69649B"/>
<path d="M256.56 191.503C255.456 190.47 254.335 189.453 253.235 188.409C248.137 183.581 242.875 178.977 237.825 174.165C236.415 175.693 234.99 177.264 233.548 178.89C230.294 182.565 226.969 186.49 223.655 190.644C219.427 195.944 219.263 203.398 223.241 208.894C225.875 212.531 228.65 216.136 231.578 219.68C240.094 229.999 249.862 239.725 260.968 247.793L267.89 241.247C267.89 241.247 258.182 223.926 246.537 202.718C249.96 198.864 253.328 195.096 256.56 191.503Z" fill="#F6BA8A"/>
<path d="M260.5 245.835C260.5 245.835 264.178 260.911 267.928 265.255C268.167 265.532 268.564 265.429 268.646 265.065C268.82 264.303 268.76 262.629 267.378 259.019C267.378 259.019 272.101 265.728 273.56 265.983C275.018 266.239 270.229 256.855 270.229 256.855C270.229 256.855 276.346 263.83 277.663 263.521C278.98 263.211 273.152 254.523 273.152 254.523C273.152 254.523 279.866 261.351 280.334 260.721C281.499 259.155 272.33 249.315 273.467 248.461C274.474 247.706 277.499 249.076 278.92 250.043C279.219 250.244 279.6 250.158 279.763 249.826C280.079 249.179 280.275 248.07 278.849 246.955C276.645 245.237 271.84 241.611 264.625 240.475L260.5 245.83V245.835Z" fill="#F6BA8A"/>
<path d="M242.009 198.124C243.827 199.331 245.356 200.848 246.559 202.669C244.736 201.468 243.217 199.946 242.009 198.124Z" fill="#151C45"/>
<path d="M233.112 178.172L252.882 196.347L277.793 170.67C277.793 170.67 279.409 144.02 274.066 143.536C266.132 142.818 240.627 167.31 233.112 178.172Z" fill="#FCB32B"/>
<path d="M269.391 179.259L279.475 169.778L272.161 188.05L269.391 179.259Z" fill="#E59A24"/>
<path d="M327.535 103.528C327.241 95.8083 326.305 87.871 323.644 81.0427C320.221 72.2518 304.087 68.8322 292.845 78.6017C287.621 83.1412 286.516 91.3667 286.826 98.8746C286.554 98.7441 286.309 98.6408 286.152 98.5973C283.861 98.0265 281.564 99.7498 280.879 101.903C280.334 103.615 280.705 105.551 281.679 107.057C282.495 108.312 283.812 109.481 285.226 110.014C285.58 110.15 287.158 110.411 288.279 110.313C289.357 115.255 291.871 119.816 295.767 123.051C300.686 127.134 306.971 128.765 313.24 127.465C318.11 126.46 325.304 123.344 327.094 118.294C327.562 116.973 327.6 115.559 327.622 114.162C327.633 113.841 327.633 113.515 327.633 113.194C327.66 110.079 327.66 106.817 327.535 103.523V103.528Z" fill="#F6BA8A"/>
<path d="M327.633 113.2C327.225 113.309 326.789 113.368 326.354 113.368C323.595 113.368 321.359 111.134 321.359 108.378C321.359 105.621 323.595 103.387 326.354 103.387C326.762 103.387 327.154 103.436 327.535 103.534C327.66 106.828 327.66 110.09 327.633 113.205V113.2Z" fill="#EBA771"/>
<path d="M296.469 108.378C296.469 111.134 298.705 113.374 301.47 113.374C304.234 113.374 306.47 111.139 306.47 108.378C306.47 105.616 304.234 103.381 301.47 103.381C298.705 103.381 296.469 105.616 296.469 108.378Z" fill="#EBA771"/>
<path d="M318.719 98.6843C318.719 100.315 319.367 101.636 320.161 101.636C320.956 101.636 321.603 100.315 321.603 98.6843C321.603 97.0533 320.956 95.7322 320.161 95.7322C319.367 95.7322 318.719 97.0533 318.719 98.6843Z" fill="#151515"/>
<path d="M323.111 94.7971C322.866 95.2756 322.545 95.6942 322.131 96.0584C321.723 96.4227 321.206 96.7054 320.619 96.8413H320.597C320.308 96.912 320.02 96.7326 319.955 96.4444C319.889 96.1563 320.069 95.8681 320.357 95.8029C320.406 95.792 320.455 95.7866 320.499 95.792C321.304 95.8247 322.202 95.3354 322.817 94.6232L322.828 94.6123C322.888 94.5416 322.997 94.5308 323.073 94.596C323.133 94.6504 323.149 94.7373 323.116 94.8026L323.111 94.7971Z" fill="#151515"/>
<path d="M302.449 98.282C303.059 98.9942 303.956 99.4835 304.767 99.4508C305.061 99.44 305.311 99.6683 305.322 99.9619C305.333 100.255 305.105 100.506 304.811 100.516C304.762 100.516 304.718 100.516 304.675 100.506H304.647C304.065 100.364 303.543 100.081 303.135 99.7172C302.721 99.353 302.4 98.9344 302.155 98.456C302.112 98.369 302.144 98.2657 302.231 98.2222C302.302 98.1841 302.389 98.2059 302.438 98.2657L302.449 98.2765V98.282Z" fill="#151515"/>
<path d="M304.37 99.5324C304.876 98.9942 305.398 98.6408 306.024 98.369C306.639 98.108 307.319 97.9721 307.989 98.0265C308.652 98.0863 309.289 98.2766 309.85 98.5756C310.138 98.7169 310.388 98.9072 310.655 99.0703L311.373 99.6574C311.509 99.7716 311.531 99.9728 311.417 100.109C311.308 100.239 311.123 100.261 310.987 100.168L310.954 100.147L310.258 99.6574C310.007 99.5324 309.773 99.3747 309.518 99.2769C309.012 99.054 308.478 98.9452 307.961 98.9398C307.439 98.9398 306.933 99.0866 306.476 99.3204C306.024 99.5487 305.583 99.9238 305.3 100.277L305.273 100.315C305.066 100.571 304.696 100.614 304.441 100.408C304.185 100.201 304.141 99.8314 304.348 99.5759C304.359 99.565 304.37 99.5541 304.381 99.5378L304.37 99.5324Z" fill="#151515"/>
<path d="M319.329 107.617C318.828 108.59 318.066 109.432 317.152 110.09C316.238 110.748 315.095 111.172 313.92 111.161C312.75 111.134 311.602 110.737 310.704 110.052C310.231 109.742 309.866 109.313 309.458 108.943C309.12 108.508 308.789 108.068 308.489 107.617C308.935 107.943 309.344 108.291 309.752 108.628C310.209 108.905 310.611 109.242 311.074 109.476C311.972 109.987 312.951 110.27 313.931 110.286C314.916 110.308 315.895 109.998 316.799 109.514C317.702 109.014 318.551 108.372 319.334 107.622L319.329 107.617Z" fill="#151515"/>
<path d="M315.433 112.852C315.019 113.216 314.459 113.347 313.915 113.368C313.37 113.352 312.81 113.205 312.391 112.852C312.924 112.939 313.408 113.042 313.915 113.02C314.415 113.042 314.905 112.955 315.433 112.852Z" fill="#151515"/>
<path d="M310.301 88.4418C309.627 87.8438 308.865 87.6481 308.065 87.6155C307.27 87.5991 306.454 87.6916 305.681 87.9525C304.903 88.1917 304.185 88.6267 303.581 89.154C302.955 89.6596 302.514 90.3283 302.15 90.9861C301.965 91.3177 302.085 91.7418 302.416 91.9266C302.683 92.0734 303.004 92.0299 303.222 91.8342L303.282 91.7799C303.75 91.3504 304.201 90.9426 304.707 90.6491C305.192 90.3229 305.736 90.1435 306.28 90.0021C306.83 89.8771 307.401 89.8064 307.983 89.839C308.56 89.8608 309.175 89.8879 309.806 89.7357L309.991 89.6922C310.378 89.5998 310.617 89.2084 310.524 88.8169C310.486 88.6701 310.41 88.5397 310.301 88.4472V88.4418Z" fill="#151515"/>
<path d="M317.517 88.4418C318.192 87.8438 318.953 87.6481 319.753 87.6155C320.548 87.5991 321.364 87.6916 322.137 87.9525C322.915 88.1917 323.633 88.6267 324.237 89.154C324.863 89.6596 325.304 90.3283 325.668 90.9861C325.853 91.3177 325.734 91.7418 325.402 91.9266C325.135 92.0734 324.814 92.0299 324.596 91.8342L324.537 91.7799C324.069 91.3504 323.617 90.9426 323.111 90.6491C322.627 90.3229 322.082 90.1435 321.538 90.0021C320.989 89.8771 320.417 89.8064 319.835 89.839C319.258 89.8608 318.643 89.8879 318.012 89.7357L317.827 89.6922C317.441 89.5998 317.201 89.2084 317.294 88.8169C317.332 88.6701 317.408 88.5397 317.517 88.4472V88.4418Z" fill="#151515"/>
<path d="M314.246 94.1719C314.502 95.2864 314.687 96.3901 314.894 97.4828C315.106 98.5756 315.308 99.6629 315.618 100.696C315.689 100.957 315.77 101.212 315.863 101.457C315.939 101.658 316.118 102.05 316.113 102.408C316.151 103.148 315.678 103.871 315.079 104.159C314.464 104.501 313.757 104.447 313.196 104.257C312.63 104.05 312.135 103.746 311.705 103.365C312.739 103.757 313.953 104.056 314.682 103.507C315.046 103.229 315.248 102.86 315.193 102.452C315.177 102.245 315.112 102.115 314.976 101.794C314.861 101.517 314.769 101.239 314.682 100.962C314.366 99.8368 314.203 98.7006 314.138 97.5644C314.072 96.4281 314.094 95.2919 314.241 94.1611L314.246 94.1719Z" fill="#151515"/>
<path d="M282.685 103.501C282.669 102.821 282.854 102.071 283.453 101.549C284.089 101.027 284.992 101.076 285.684 101.337C286.413 101.587 287.011 102.088 287.485 102.648C287.969 103.213 288.317 103.827 288.606 104.534C288.709 104.784 288.584 105.072 288.334 105.176C288.143 105.252 287.931 105.203 287.8 105.067L287.768 105.034C287.289 104.545 286.685 104.028 286.113 103.865C285.825 103.789 285.618 103.8 285.417 103.941C285.21 104.088 285.052 104.393 284.922 104.708C284.671 105.355 284.519 106.111 285.069 106.415C285.645 106.747 286.5 106.665 287.256 106.562C286.543 106.877 285.749 107.138 284.851 106.883C284.394 106.736 284.035 106.219 284.002 105.752C283.959 105.284 284.024 104.86 284.144 104.447C284.269 104.034 284.437 103.599 284.846 103.24C285.254 102.87 285.901 102.789 286.358 102.93C287.294 103.213 287.926 103.751 288.513 104.376L287.675 104.871C287.224 103.74 286.478 102.566 285.406 102.033C284.867 101.778 284.236 101.647 283.725 101.93C283.191 102.207 282.87 102.86 282.691 103.507L282.685 103.501Z" fill="#151C45"/>
<path d="M325.113 83.6033C324.471 80.8252 323.318 78.2537 321.353 76.1172C317.163 71.545 310.475 70.3001 304.283 70.1533C300.109 70.0445 295.81 70.3544 292.05 72.1811C286.119 75.0353 282.549 81.0916 278.196 86.0226C271.693 93.3945 262.845 98.6571 253.263 100.859C245.421 102.658 237.27 102.436 229.238 103.159C221.217 103.871 212.924 105.719 206.77 110.911C201.976 114.94 198.689 120.833 193.106 123.665C190.01 125.253 186.472 125.726 183.012 126.188L177.341 126.922C169 128.025 164.282 137.338 168.668 144.52C168.689 144.569 168.727 144.612 168.749 144.672C171.633 149.293 176.27 152.887 178.027 158.051C179.627 162.781 178.528 167.962 178.903 172.937C179.518 180.76 183.969 188.012 190.124 192.883C196.278 197.755 204.016 200.375 211.819 201.229C214.676 201.549 217.56 201.631 220.444 201.49C220.063 197.695 221.146 193.786 223.649 190.644C226.969 186.495 230.294 182.57 233.542 178.884C233.591 178.825 233.651 178.765 233.711 178.705L233.118 178.161C240.627 167.304 266.132 142.807 274.066 143.53C275.976 143.09 277.766 143.106 279.393 143.471C279.964 143.378 280.541 143.329 281.124 143.302C284.127 143.193 286.554 142.568 288.524 141.666C291.669 131.853 288.796 113.635 288.225 110.308C287.109 110.4 285.569 110.139 285.21 110.009C283.812 109.476 282.484 108.302 281.673 107.046C280.688 105.54 280.318 103.61 280.868 101.892C281.504 99.913 283.518 98.3092 285.624 98.5212C286.614 100.207 287.806 101.772 289.199 103.142C289.629 103.566 290.151 104.001 290.755 103.969C291.544 103.925 292.045 103.142 292.415 102.446C292.888 101.555 293.715 100.631 294.189 99.739C299.815 100.06 305.535 97.5589 309.121 93.2151C310.22 91.8832 311.118 90.4044 312.015 88.9257C313.213 86.9522 314.41 84.9788 315.612 83.0053C318.273 85.9682 322.469 91.3232 326.425 91.7962C326.425 91.7962 326.55 87.9091 325.102 83.5924L325.113 83.6033Z" fill="#151515"/>
<path d="M135.795 351.647C133.743 352.386 132.062 352.995 130.881 353.419C128.139 351.968 125.603 351.772 124.357 351.701C123.459 351.652 123.176 352.131 123.089 352.473C123.045 352.647 123.16 352.805 123.334 352.827C124.177 352.93 125.761 353.408 125.897 354.023C126.049 354.713 119.437 355.387 119.372 356.35C119.345 356.736 124.068 356.388 124.068 356.388C124.068 356.388 119.078 357.725 119.476 358.269C119.873 358.818 124.417 358.209 124.417 358.209C124.417 358.209 119.595 360.144 120.227 360.525C120.858 360.906 124.792 359.949 124.792 359.949C123.111 360.846 122.55 361.449 122.371 361.792C122.283 361.955 122.403 362.123 122.583 362.096C124.329 361.851 127.399 360.047 129.472 358.715L129.483 358.791C132.258 359.046 135.044 359.117 137.808 359.046C137.046 356.611 136.388 354.137 135.795 351.636V351.647Z" fill="#F18665"/>
<path d="M166.039 319.745L153.877 344.781L131.338 352.337L132.225 359.894C132.225 359.894 158.916 358.263 163.215 353.968C167.514 349.674 175.671 328.933 175.97 326.856C176.269 324.785 166.034 319.745 166.034 319.745H166.039Z" fill="#FCB32B"/>
<path d="M173.527 316.141C173.527 316.141 167.889 321.893 168.113 326.411C168.336 330.928 168.706 355.746 168.706 355.746L166.409 356.855L161.664 355.154C161.664 355.154 163.961 328.933 164.037 326.117C164.113 323.301 164.929 319.006 167.596 317.821C170.267 316.636 173.527 316.141 173.527 316.141Z" fill="#FCB32B"/>
<path d="M100.49 366.348C90.4773 367.614 83.6318 368.544 83.6318 368.544L81.4116 378.08L101.469 378.308C100.958 374.339 100.648 370.354 100.484 366.348H100.49Z" fill="#F18D6E"/>
<path d="M85.0248 368.104C85.0248 368.104 82.8863 365.875 82.0156 363.934C81.1395 361.993 81.6293 353.262 77.2597 353.843V374.018L79.0554 375.813H77.0638V379.836C77.0638 379.836 81.5313 381.39 84.2467 379.933C84.2467 379.933 81.6238 377.025 82.7883 373.823C83.9528 370.621 85.0194 368.098 85.0194 368.098L85.0248 368.104Z" fill="#FCB32B"/>
<path d="M95.304 365.673V379.205H191.392C191.392 379.205 188.029 359.845 180.22 357.377C172.411 354.909 95.304 365.673 95.304 365.673Z" fill="#026D39"/>
<path d="M102.928 363.406L88.921 371.197L87.7892 377.873L90.9997 381.624L94.0797 380.608C94.0797 380.608 94.1286 380.586 94.232 380.548C95.2333 380.135 101.034 377.748 109.186 374.356C106.987 370.773 104.87 367.136 102.922 363.412L102.928 363.406Z" fill="#F79678"/>
<path d="M89.34 369.919C89.34 369.919 86.4179 368.914 84.7473 367.593C83.0822 366.271 79.5016 358.291 75.8884 360.808L85.1555 378.737L87.577 379.509L85.8084 380.423L87.6586 384C87.6586 384 92.3384 383.331 94.0851 380.792C94.0851 380.792 90.4175 379.406 89.9821 376.03C89.5468 372.654 89.34 369.919 89.34 369.919Z" fill="#FCB32B"/>
<path d="M95.1571 366.565L100.795 378.123L136.236 364.048C136.236 364.048 177.015 386.713 187.985 382.418C198.961 378.123 199.554 357.084 195.103 354.567C190.652 352.049 166.388 355.404 166.388 355.404L165.152 356.491C165.152 356.491 140.981 346.27 135.196 346.564C129.412 346.863 95.1571 366.565 95.1571 366.565Z" fill="#026D39"/>
<path d="M101.235 377.672L136.383 363.896L134.456 361.525" stroke="#01512A" stroke-miterlimit="10"/>
<path d="M169.005 379.156L136.383 363.896" stroke="#01512A" stroke-miterlimit="10"/>
<path d="M165.299 356.638L174.936 361.824" stroke="#01512A" stroke-miterlimit="10"/>
<path d="M177.456 359.894L168.706 358.416" stroke="#01512A" stroke-miterlimit="10"/>
<path d="M194.858 318.354C193.699 317.261 192.137 316.695 190.543 316.641C189.068 316.587 187.882 316.277 186.913 315.831C185.308 310.857 186.859 301.462 187.066 300.266C187.077 300.223 187.082 300.185 187.087 300.141L174.191 307.388C174.408 307.747 174.528 308.242 174.583 308.807C174.697 309.96 174.534 311.422 174.305 312.754C174.044 314.249 173.696 315.57 173.543 316.103C172.493 317.375 171.105 318.027 169.239 319.039C169.261 319.517 169.234 320.017 169.136 320.539C168.581 323.54 169.56 327.743 169.424 330.858C169.261 334.495 169.141 338.094 169.174 341.731C169.212 346.259 169.402 350.576 169.729 354.947H194.172C193.47 348.44 195.13 338.757 196.958 328.08C197.873 322.741 196.48 319.881 194.858 318.359V318.354Z" fill="#F79678"/>
<path d="M174.3 312.749C181.308 313.635 184.862 305.268 184.992 304.958C183.697 307.013 181.82 308.051 179.986 308.546C177.728 309.16 175.54 308.954 174.621 308.818C174.604 308.818 174.593 308.818 174.577 308.807C174.691 309.954 174.528 311.417 174.3 312.749Z" fill="#F47B56"/>
<path d="M173.473 316.358C173.473 316.358 170.735 322.018 172.716 323.301C174.691 324.584 187.049 315.793 187.049 315.793C187.049 315.793 193.77 316.581 195.652 321.322C197.53 326.063 194.863 355.398 194.863 355.398C194.863 355.398 172.128 356.779 166.393 355.398C166.393 355.398 166.491 340.877 165.8 336.338C165.109 331.793 165.528 324.116 166.937 321.007C167.672 319.387 173.478 316.358 173.478 316.358H173.473Z" fill="white"/>
<path d="M187.245 315.451C187.245 315.451 176.716 320.338 177.755 325.671C178.794 331.004 183.393 383.891 183.393 383.891C183.393 383.891 197.182 384.337 202.373 381.668C207.564 379.004 195.848 342.851 196.441 339.447C197.035 336.039 200.147 320.778 195.701 317.968C191.25 315.152 187.251 315.451 187.251 315.451H187.245Z" fill="#FCB32B"/>
<path d="M184.078 378.808C189.242 381.037 195.282 381.657 200.604 379.651C201.388 379.412 202.095 379.009 202.862 378.71C202.161 379.129 201.475 379.602 200.724 379.939C195.478 382.445 188.981 381.831 184.078 378.814V378.808Z" fill="#E69B24"/>
<path d="M149.651 330.122L151.142 328.643L142.553 320.002L141.062 321.481L149.651 330.122Z" fill="#151C45"/>
<path d="M144.91 330.885C144.91 330.885 145.383 331.777 145.742 331.94C146.096 332.103 147.946 332.554 148.011 332.538C148.093 332.603 149.785 334.038 152.305 336.109C153.088 335.06 153.894 334.016 154.715 332.967C155.27 332.255 155.809 331.532 156.342 330.803C155.232 330.298 154.296 329.874 153.584 329.548L151.978 328.297C151.255 327.4 149.17 324.024 148.191 324.095C147.01 324.182 147.081 324.638 147.081 324.638C147.081 324.638 148.909 326.971 148.496 327.895C148.104 328.77 144.11 324.421 144.11 324.421L143.049 323.578C143.049 323.578 142.864 326.014 143.74 326.84C143.74 326.84 143.223 328.172 144.186 329.183C144.186 329.183 144.229 330.488 144.904 330.885H144.91Z" fill="#F79678"/>
<path d="M186.206 319.305L178.196 339.306L152.544 328.341C152.544 328.341 148.093 333.973 148.539 334.12C148.985 334.266 171.671 356.344 181.161 354.713C190.652 353.082 197.029 325.231 197.029 325.231L186.206 319.305Z" fill="#FCB32B"/>
<path d="M180.819 354.811C180.819 354.811 183.686 354.512 185.564 351.946C187.441 349.38 194.167 335.751 194.167 335.751C194.167 335.751 190.51 359.356 180.819 354.811Z" fill="#E59A24"/>
<path d="M182.201 341.182C180.465 340.72 178.854 339.926 177.276 339.099C178.533 338.8 179.806 338.496 181.118 338.42C180.182 338.882 179.213 339.214 178.228 339.507L178.283 338.936C179.654 339.572 180.987 340.268 182.201 341.187V341.182Z" fill="#E69B24"/>
<path d="M155.706 340.491C159.46 342.845 162.959 345.547 166.186 348.592C162.426 346.238 158.933 343.536 155.706 340.491Z" fill="#E69B24"/>
<path d="M160.255 331.499C162.148 331.896 163.868 332.684 165.397 333.87C163.503 333.478 161.784 332.679 160.255 331.499Z" fill="#E69B24"/>
<path d="M182.5 324.192C183.164 320.931 185.885 317.098 189.618 317.674C186.059 318.065 184.051 321.311 182.5 324.192Z" fill="#E69B24"/>
<path d="M190.662 296.259C190.325 295.199 189.193 294.351 188.067 294.634C187.991 294.656 187.866 294.705 187.735 294.77C187.887 291.073 187.349 287.023 184.775 284.788C179.241 279.982 171.301 281.662 169.62 285.99C167.694 290.937 167.596 297.059 167.661 302.294C167.672 302.979 167.688 303.68 167.917 304.327C168.798 306.812 172.341 308.345 174.74 308.845C177.82 309.487 180.917 308.677 183.338 306.67C185.254 305.078 186.494 302.832 187.028 300.402C187.577 300.451 188.355 300.321 188.529 300.255C189.226 299.989 189.873 299.418 190.276 298.798C190.76 298.059 190.94 297.102 190.673 296.259H190.662Z" fill="#F79678"/>
<path d="M171.688 294.672C171.688 295.477 171.372 296.124 170.975 296.124C170.578 296.124 170.262 295.471 170.262 294.672C170.262 293.873 170.578 293.22 170.975 293.22C171.372 293.22 171.688 293.873 171.688 294.672Z" fill="#151C45"/>
<path d="M177.129 296.124C177.523 296.124 177.842 295.474 177.842 294.672C177.842 293.87 177.523 293.22 177.129 293.22C176.736 293.22 176.416 293.87 176.416 294.672C176.416 295.474 176.736 296.124 177.129 296.124Z" fill="#151C45"/>
<path d="M171.388 299.07C171.633 299.549 172.009 299.962 172.46 300.288C172.907 300.614 173.473 300.821 174.049 300.815C174.626 300.799 175.192 300.603 175.633 300.272C175.867 300.119 176.046 299.907 176.248 299.728C176.416 299.511 176.58 299.299 176.727 299.076C176.509 299.239 176.308 299.407 176.106 299.57C175.883 299.706 175.682 299.875 175.459 299.989C175.018 300.239 174.534 300.38 174.055 300.386C173.57 300.397 173.092 300.244 172.645 300.005C172.205 299.761 171.786 299.445 171.394 299.076L171.388 299.07Z" fill="#151C45"/>
<path d="M173.304 301.647C173.505 301.827 173.783 301.892 174.049 301.903C174.316 301.892 174.593 301.821 174.8 301.647C174.539 301.691 174.3 301.74 174.049 301.729C173.804 301.74 173.56 301.696 173.304 301.647Z" fill="#151C45"/>
<path d="M175.829 289.632C176.161 289.339 176.536 289.241 176.928 289.225C177.32 289.214 177.722 289.263 178.098 289.393C178.479 289.513 178.832 289.725 179.132 289.986C179.442 290.236 179.654 290.562 179.839 290.888C179.932 291.051 179.872 291.258 179.709 291.35C179.578 291.421 179.42 291.399 179.311 291.301L179.284 291.274C179.05 291.062 178.832 290.861 178.582 290.72C178.343 290.557 178.076 290.47 177.809 290.404C177.537 290.339 177.26 290.306 176.971 290.323C176.689 290.334 176.384 290.345 176.074 290.268L175.981 290.247C175.791 290.198 175.671 290.007 175.72 289.817C175.736 289.747 175.774 289.681 175.829 289.638V289.632Z" fill="#151C45"/>
<path d="M172.281 289.632C171.949 289.339 171.573 289.241 171.182 289.225C170.79 289.214 170.387 289.263 170.012 289.393C169.631 289.513 169.277 289.725 168.978 289.986C168.668 290.236 168.455 290.562 168.27 290.888C168.178 291.051 168.238 291.258 168.401 291.35C168.532 291.421 168.689 291.399 168.798 291.301L168.825 291.274C169.059 291.062 169.277 290.861 169.527 290.72C169.767 290.557 170.033 290.47 170.3 290.404C170.572 290.339 170.85 290.306 171.138 290.323C171.421 290.334 171.726 290.345 172.036 290.268L172.128 290.247C172.319 290.198 172.439 290.007 172.39 289.817C172.373 289.747 172.335 289.681 172.281 289.638V289.632Z" fill="#151C45"/>
<path d="M172.618 292.318C172.493 292.867 172.4 293.411 172.297 293.949C172.194 294.487 172.09 295.02 171.938 295.531C171.905 295.661 171.862 295.786 171.818 295.906C171.78 296.004 171.693 296.194 171.693 296.374C171.677 296.738 171.905 297.091 172.205 297.238C172.509 297.407 172.858 297.379 173.13 297.287C173.407 297.184 173.652 297.037 173.864 296.847C173.353 297.037 172.76 297.189 172.401 296.917C172.221 296.781 172.123 296.597 172.15 296.401C172.161 296.298 172.194 296.232 172.259 296.08C172.313 295.944 172.362 295.808 172.401 295.667C172.558 295.112 172.634 294.552 172.667 293.992C172.7 293.432 172.689 292.872 172.613 292.318H172.618Z" fill="#151C45"/>
<path d="M189.835 296.912C189.841 296.58 189.754 296.211 189.454 295.95C189.139 295.694 188.698 295.716 188.355 295.846C187.996 295.971 187.702 296.216 187.468 296.493C187.229 296.771 187.06 297.075 186.919 297.423C186.87 297.548 186.93 297.689 187.055 297.738C187.147 297.776 187.251 297.749 187.316 297.684L187.332 297.668C187.566 297.428 187.866 297.173 188.148 297.091C188.29 297.053 188.393 297.059 188.491 297.129C188.595 297.2 188.671 297.352 188.736 297.504C188.861 297.825 188.937 298.195 188.665 298.342C188.382 298.505 187.963 298.467 187.588 298.418C187.942 298.57 188.328 298.7 188.769 298.575C188.992 298.505 189.171 298.249 189.188 298.015C189.21 297.787 189.177 297.575 189.117 297.374C189.057 297.173 188.97 296.955 188.774 296.781C188.573 296.602 188.257 296.558 188.029 296.629C187.566 296.765 187.256 297.031 186.968 297.341L187.381 297.586C187.604 297.031 187.969 296.45 188.497 296.189C188.763 296.064 189.074 295.999 189.324 296.14C189.585 296.276 189.743 296.597 189.83 296.917L189.835 296.912Z" fill="#151C45"/>
<path d="M191.228 290.959C190.804 289.605 190.151 288.056 188.747 287.816C189.28 286.642 189.269 285.234 188.709 284.06C188.225 283.054 187.354 282.244 186.418 281.63C185.112 280.765 183.621 280.184 182.065 279.961C179.692 279.618 177.271 280.08 174.925 280.542C173.701 280.782 172.172 280.983 170.953 281.217C169.729 280.254 167.797 280.765 166.812 281.961C165.816 283.157 165.577 284.816 165.615 286.37C165.696 289.442 166.681 292.389 167.797 295.259C167.878 294.069 168.015 292.889 168.183 291.715C168.608 290.437 169.359 289.263 170.3 288.295C173.266 291.29 178.016 292.367 181.983 290.943C182.103 291.932 182.353 292.824 182.75 293.737C183.224 294.819 184.007 295.912 185.166 296.129C185.673 296.221 186.298 296.064 186.472 295.58C186.63 295.14 187.74 294.715 187.735 294.759C187.865 294.699 187.985 294.65 188.067 294.629C189.193 294.346 190.32 295.199 190.652 296.254C190.924 297.097 190.744 298.054 190.26 298.793C189.857 299.407 189.215 299.989 188.518 300.25C188.339 300.321 187.572 300.451 187.011 300.402C186.739 301.68 186.266 302.914 185.585 304.017C186.549 304.126 187.534 304.066 188.382 303.615C189.59 302.974 190.292 301.685 190.886 300.451C191.419 299.347 191.919 298.233 192.11 297.037C192.431 294.998 191.838 292.938 191.223 290.959H191.228Z" fill="#171717"/>
<path d="M156.816 140.633C154.519 137.914 151.129 136.088 147.554 136.071C143.326 136.05 138.859 138.159 135.06 136.305C129.972 133.821 129.559 125.829 124.389 123.518C120.787 121.909 116.706 123.861 112.831 124.595C106.247 125.845 99.0696 123.187 94.8905 117.946C93.2743 115.924 92.0826 113.559 90.2542 111.727C86.8315 108.312 81.4225 107.258 76.7754 108.601C72.1283 109.943 68.2756 113.45 65.9466 117.69C64.1455 120.969 62.8232 125.041 59.3569 126.443C55.3845 128.053 50.6558 125.193 46.6725 126.77C43.8102 127.906 42.2159 131.113 42.0689 134.185C41.9655 136.37 42.4553 138.518 43.1083 140.622H156.81L156.816 140.633Z" fill="#FDFEFE"/>
<path d="M548.654 185.745C547.892 183.832 546.015 182.288 544.143 181.69C541.4 180.814 538.391 181.021 535.834 179.58C532.971 177.971 530.669 174.345 527.492 174.698C524.945 174.981 523.106 177.819 520.592 178.39C515.395 179.564 511.939 170.882 506.645 170.876C503.489 170.876 500.855 174.046 497.699 174.16C493.607 174.307 490.908 169.588 488.41 165.88C484.71 160.384 478.289 155.801 472.804 158.758C469.158 160.726 467.291 165.293 465.305 169.311C463.319 173.328 460.31 177.498 456.277 177.503C452.038 177.509 447.772 172.844 444.083 175.231C442.347 176.351 441.509 178.781 441.52 181.064C441.525 182.668 441.884 184.223 442.336 185.751H548.648L548.654 185.745Z" fill="#FDFEFE"/>
<path d="M168.591 80.8252H118.11C117.193 80.8252 116.45 81.5676 116.45 82.4834V112.477C116.45 113.393 117.193 114.135 118.11 114.135H168.591C169.508 114.135 170.251 113.393 170.251 112.477V82.4834C170.251 81.5676 169.508 80.8252 168.591 80.8252Z" fill="#199B65"/>
<path d="M119.067 90.6708C119.019 90.6708 118.98 90.6328 118.98 90.5838V83.7718C118.98 83.7229 119.019 83.6848 119.067 83.6848H124.226C124.275 83.6848 124.313 83.7229 124.313 83.7718C124.313 83.8208 124.275 83.8588 124.226 83.8588H119.155V90.5838C119.155 90.6328 119.116 90.6708 119.067 90.6708Z" fill="#F8B218" stroke="#F8B218" stroke-width="3" stroke-miterlimit="10"/>
<path d="M167.634 90.6708C167.585 90.6708 167.547 90.6328 167.547 90.5838V83.8588H162.475C162.426 83.8588 162.388 83.8208 162.388 83.7718C162.388 83.7229 162.426 83.6848 162.475 83.6848H167.634C167.683 83.6848 167.721 83.7229 167.721 83.7718V90.5838C167.721 90.6328 167.683 90.6708 167.634 90.6708Z" fill="#F8B218" stroke="#F8B218" stroke-width="3" stroke-miterlimit="10"/>
<path d="M124.226 111.275H119.067C119.019 111.275 118.98 111.237 118.98 111.188V104.637C118.98 104.588 119.019 104.55 119.067 104.55C119.116 104.55 119.155 104.588 119.155 104.637V111.101H124.226C124.275 111.101 124.313 111.139 124.313 111.188C124.313 111.237 124.275 111.275 124.226 111.275Z" fill="#F8B218" stroke="#F8B218" stroke-width="3" stroke-miterlimit="10"/>
<path d="M167.634 111.275H162.475C162.426 111.275 162.388 111.237 162.388 111.188C162.388 111.139 162.426 111.101 162.475 111.101H167.547V104.637C167.547 104.588 167.585 104.55 167.634 104.55C167.683 104.55 167.721 104.588 167.721 104.637V111.188C167.721 111.237 167.683 111.275 167.634 111.275Z" fill="#F8B218" stroke="#F8B218" stroke-width="3" stroke-miterlimit="10"/>
<path d="M143.353 107.818C149.066 107.818 153.698 103.191 153.698 97.4828C153.698 91.775 149.066 87.1479 143.353 87.1479C137.64 87.1479 133.009 91.775 133.009 97.4828C133.009 103.191 137.64 107.818 143.353 107.818Z" fill="#F8B218"/>
<path d="M139.327 101.783V93.1825L147.375 96.7L139.327 101.783Z" fill="white"/>
<path d="M198.711 252.637V267.68C198.711 269.74 200.577 271.414 202.884 271.414H413.61C415.912 271.414 417.784 269.74 417.784 267.68V252.637H198.711Z" fill="#026D39"/>
<path d="M410.285 259.916H304.985C304.539 259.916 304.174 259.258 304.174 258.454C304.174 257.649 304.539 256.991 304.985 256.991H410.285C410.731 256.991 411.096 257.649 411.096 258.454C411.096 259.258 410.731 259.916 410.285 259.916Z" fill="#049365"/>
<path d="M305.638 259.916H204.326C203.516 259.916 202.863 259.258 202.863 258.454C202.863 257.649 203.521 256.991 204.326 256.991H305.638C306.449 256.991 307.102 257.649 307.102 258.454C307.102 259.258 306.443 259.916 305.638 259.916Z" fill="#F7B21A"/>
<path d="M308.244 258.454C308.244 260.177 306.846 261.574 305.121 261.574C303.396 261.574 301.997 260.177 301.997 258.454C301.997 256.73 303.396 255.333 305.121 255.333C306.846 255.333 308.244 256.73 308.244 258.454Z" fill="#FFFEFE"/>
<path d="M217.005 263.885H218.436V268.767H217.005V263.885ZM214.252 268.767H215.683V263.885H214.252V268.767ZM227.834 263.885V265.858L224.819 263.885V268.767L227.834 266.793V268.767H229.265V263.885H227.834ZM203.423 263.885V268.767H204.854V266.793L207.869 268.767V263.885L204.854 265.858V263.885H203.423Z" fill="#FFFEFE"/>
<path d="M419.117 95.9551C419.084 96.0584 424.009 97.8688 430.114 100.005C436.225 102.142 441.204 103.789 441.242 103.686C441.275 103.583 436.356 101.772 430.245 99.6357C424.134 97.4991 419.155 95.8518 419.122 95.9551H419.117Z" stroke="#E59A24" stroke-width="3" stroke-miterlimit="10"/>
<path d="M417.131 84.4079C417.147 84.5166 425.005 83.4184 434.685 81.9614C444.366 80.5045 452.196 79.2377 452.185 79.129C452.169 79.0203 444.311 80.1185 434.631 81.5755C424.956 83.0325 417.12 84.2992 417.136 84.4079H417.131Z" stroke="#E59A24" stroke-width="3" stroke-miterlimit="10"/>
<path d="M415.378 72.5562C415.449 72.6378 418.203 70.1804 421.527 67.0707C424.852 63.961 427.486 61.3787 427.415 61.2971C427.344 61.2156 424.591 63.6729 421.266 66.7826C417.941 69.8923 415.308 72.4747 415.378 72.5562Z" stroke="#E59A24" stroke-width="3" stroke-miterlimit="10"/>
<path d="M132.769 150.272C124.466 145.156 119.285 155.137 119.252 155.197C119.22 155.137 114.045 145.156 105.736 150.272C96.1964 156.149 105.518 174.704 119.247 179.205C132.976 174.704 142.303 156.143 132.758 150.272H132.769Z" fill="#199B65"/>
<path d="M77.6298 96.6891C81.0743 97.1131 84.5678 97.1349 88.0178 96.7489C88.8503 96.6565 89.7046 96.5314 90.4121 96.0911C91.1195 95.6507 91.6419 94.8841 91.4623 94.0687C92.0881 94.0632 92.5996 93.5902 93.0458 93.1499C93.2254 92.9705 93.4158 92.7856 93.5246 92.5519C93.6552 92.2855 93.677 91.981 93.6607 91.682C93.6117 90.7469 93.1764 89.8825 92.3601 89.4204C93.1056 89.1975 93.726 88.5886 93.9491 87.8438C94.1722 87.099 93.9981 86.2455 93.5029 85.6529C93.1709 85.256 92.7737 85.0603 92.2949 84.87C92.6322 84.5656 93.1056 84.4188 93.3723 84.0491C93.7423 83.5381 93.541 82.7715 93.073 82.342C92.605 81.918 91.952 81.7657 91.3262 81.7059C90.1781 81.6026 89.0245 81.7549 87.8763 81.7984C86.7281 81.8419 85.482 81.6298 84.459 81.097C84.2359 79.5802 84.6004 77.9982 84.1923 76.5195C83.6917 74.7037 81.9558 73.301 80.0785 73.1923C79.7193 73.1706 79.3167 73.214 79.0827 73.4913C78.914 73.6979 78.8813 73.9806 78.8813 74.2416C78.8759 75.4648 79.3384 76.6391 79.6159 77.8297C79.8989 79.0203 79.9696 80.374 79.2731 81.3798C79.001 81.7712 78.6256 82.0919 78.4025 82.516C78.0977 83.0977 78.1249 83.799 77.9617 84.4405C77.7985 85.082 77.3033 85.7507 76.6448 85.6855L77.6189 96.6891H77.6298Z" fill="white"/>
<path d="M77.0693 82.4942H72.95C72.6314 82.4942 72.3732 82.7522 72.3732 83.0705V97.3958C72.3732 97.7141 72.6314 97.9721 72.95 97.9721H77.0693C77.3878 97.9721 77.6461 97.7141 77.6461 97.3958V83.0705C77.6461 82.7522 77.3878 82.4942 77.0693 82.4942Z" fill="white"/>
<path d="M74.8763 85.0657C75.2309 85.0657 75.5184 84.7785 75.5184 84.4242C75.5184 84.0699 75.2309 83.7827 74.8763 83.7827C74.5217 83.7827 74.2342 84.0699 74.2342 84.4242C74.2342 84.7785 74.5217 85.0657 74.8763 85.0657Z" fill="white"/>
<path d="M499.266 119.849H459.515C456.887 119.849 454.754 121.98 454.754 124.606V150.206C454.754 152.832 456.887 154.963 459.515 154.963H471.351L475.089 161.428L479.393 168.881L483.698 161.428L487.436 154.963H499.271C501.9 154.963 504.033 152.832 504.033 150.206V124.606C504.033 121.98 501.9 119.849 499.271 119.849H499.266Z" fill="#FCB32B"/>
<path d="M476.215 148.836C479.66 149.261 483.153 149.282 486.603 148.896C487.436 148.804 488.29 148.679 488.998 148.238C489.705 147.798 490.228 147.032 490.048 146.216C490.674 146.211 491.191 145.738 491.631 145.297C491.811 145.118 492.001 144.933 492.11 144.699C492.241 144.433 492.263 144.128 492.246 143.829C492.197 142.894 491.762 142.03 490.946 141.568C491.691 141.345 492.312 140.736 492.535 139.991C492.758 139.246 492.584 138.393 492.089 137.8C491.757 137.403 491.359 137.213 490.881 137.017C491.218 136.713 491.691 136.566 491.958 136.196C492.328 135.685 492.127 134.919 491.659 134.489C491.191 134.065 490.538 133.913 489.912 133.853C488.764 133.75 487.61 133.902 486.462 133.946C485.314 133.989 484.068 133.777 483.045 133.244C482.822 131.728 483.186 130.146 482.778 128.667C482.277 126.851 480.542 125.448 478.664 125.34C478.305 125.318 477.902 125.361 477.668 125.639C477.5 125.845 477.467 126.128 477.467 126.389C477.462 127.612 477.924 128.786 478.202 129.977C478.485 131.168 478.555 132.521 477.859 133.527C477.587 133.919 477.211 134.239 476.988 134.663C476.683 135.245 476.711 135.946 476.547 136.588C476.39 137.229 475.889 137.898 475.231 137.833L476.205 148.836H476.215Z" fill="white"/>
<path d="M475.66 134.647H471.541C471.223 134.647 470.964 134.905 470.964 135.223V149.549C470.964 149.867 471.223 150.125 471.541 150.125H475.66C475.979 150.125 476.237 149.867 476.237 149.549V135.223C476.237 134.905 475.979 134.647 475.66 134.647Z" fill="white"/>
<path d="M474.11 136.572C474.11 136.925 473.821 137.213 473.467 137.213C473.114 137.213 472.825 136.925 472.825 136.572C472.825 136.218 473.114 135.93 473.467 135.93C473.821 135.93 474.11 136.218 474.11 136.572Z" fill="white"/>
<path d="M447.642 327.433C448.931 327.509 453.867 336.512 456.109 342.818C458.356 349.125 452.218 375.84 452.218 375.84L449.753 374.649C451.151 369.435 446.357 327.362 447.642 327.438V327.433Z" fill="#F7996F"/>
<path d="M446.472 376.769H454.378C454.378 376.769 453.072 372.98 449.976 373.236C448.088 373.393 446.472 376.769 446.472 376.769Z" fill="#5C4FA1"/>
<path d="M440.872 369.528L447.054 370.072C447.054 370.072 447.054 344.09 448.507 328.281C448.507 328.281 443.724 348.037 440.867 369.522" fill="#FCB32B"/>
<path d="M456.958 283.239C452.283 283.565 450.52 262.923 450.983 262.036C450.983 262.036 454.253 260.634 454.64 261.737C455.635 264.597 459.047 283.087 456.958 283.239Z" fill="#FCB32B"/>
<path d="M453.312 262.694C452.686 262.89 450.988 262.042 450.988 262.042C450.526 262.928 452.289 283.571 456.963 283.244C457.083 283.233 457.186 283.157 457.268 283.038C453.627 280.341 452.773 266.059 453.312 262.7V262.694Z" fill="#E59A24"/>
<path d="M454.563 233.522C449.312 230.706 449.361 262.466 450.901 263.325C450.901 263.325 454.036 264.184 454.792 262.895C457.083 258.997 456.909 234.778 454.563 233.522Z" fill="#FCB32B"/>
<path d="M453.219 263.896C452.174 263.314 450.705 246.847 451.489 237.148C449.437 245.074 449.764 262.694 450.901 263.33C450.901 263.33 452.164 263.879 453.257 263.917C453.23 263.907 453.214 263.901 453.214 263.901L453.219 263.896Z" fill="#E59A24"/>
<path d="M457.034 284.837L458.285 284.299L458.498 278.966C458.498 278.966 456.92 279.52 456.506 279.944C456.092 280.368 457.039 284.837 457.039 284.837H457.034Z" fill="white"/>
<path d="M457.132 284.837L455.739 284.794L453.404 280.14C453.404 280.14 455.837 279.564 456.408 279.803C456.979 280.042 457.126 284.837 457.126 284.837H457.132Z" fill="white"/>
<path d="M486.495 324.247C485.145 324.29 480.199 333.685 478 340.306C475.802 346.928 482.881 375.448 482.881 375.448L485.434 374.258C483.845 368.685 487.839 324.203 486.495 324.247Z" fill="#F7996F"/>
<path d="M489.613 376.769H481.124C481.124 376.769 482.56 373.692 485.885 373.904C487.909 374.029 489.613 376.769 489.613 376.769Z" fill="#5C4FA1"/>
<path d="M492.404 370.74C492.671 341.769 491.354 291.611 483.676 276.987C475.916 262.21 473.31 257.203 482.582 240.247C482.582 240.247 482.582 240.225 482.577 240.203C482.468 239.48 480.362 225.959 473.914 219.408C469.163 214.581 462.998 214.39 458.568 220.403C453.214 227.677 452.044 241.231 452.044 241.231C459.907 253.843 466.698 253.006 453.85 273.111C445.917 285.522 440.121 339.159 439.316 370.213" fill="#FCB32B"/>
<path d="M439.316 370.213C448.61 368.848 458.879 372.92 471.791 370.256C480.661 368.424 484.465 369.805 492.404 370.74" fill="#E59A24"/>
<path d="M492.404 370.74C492.671 341.769 491.354 291.611 483.676 276.987C476.009 262.384 473.38 257.312 482.272 240.834C477.603 242.03 472.314 242.709 466.704 242.709C461.463 242.709 456.501 242.117 452.066 241.068C452.055 241.176 452.049 241.231 452.049 241.231C459.912 253.844 466.704 253.006 453.856 273.111C445.922 285.522 440.127 339.159 439.321 370.213" fill="#FCB32B"/>
<path d="M441.612 369.99C441.928 334.451 455.254 257.606 468.641 257.606C482.027 257.606 490.559 335.218 490.701 370.523C491.251 370.593 491.811 370.67 492.404 370.74" fill="#E59A24"/>
<path d="M482.092 369.588C482.092 369.588 483.268 351.419 482.68 340.181C482.68 340.181 484.568 354.485 486.152 369.865L482.092 369.588Z" fill="#FCB32B"/>
<path d="M471.438 257.241C471.438 257.241 476.074 275.133 478.147 286.213C478.147 286.213 477.064 271.974 474.692 256.796L471.438 257.236V257.241Z" fill="#FCB32B"/>
<path d="M459.004 245.205H494.575C495.071 245.205 495.473 245.607 495.473 246.102V269.305H458.106V246.102C458.106 245.607 458.508 245.205 459.004 245.205Z" fill="#E0DFDF"/>
<path d="M495.473 268.908H458.106V271.675H495.473V268.908Z" fill="#A1B1D0"/>
<path d="M480.15 258.242C480.15 260.096 478.642 261.601 476.787 261.601C474.931 261.601 473.424 260.096 473.424 258.242C473.424 256.388 474.931 254.882 476.787 254.882C478.642 254.882 480.15 256.388 480.15 258.242Z" fill="white"/>
<path d="M478.686 267.745L478.31 267.114C478.196 267.114 478.087 267.136 477.979 267.141C477.821 267.005 477.663 266.88 477.511 266.744C477.32 267.005 477.195 267.174 477.157 267.234C475.203 267.544 473.794 268.359 473.087 268.789C472.542 269.12 472.564 269.512 472.651 269.751C472.695 269.87 472.825 269.919 472.934 269.86C473.467 269.582 474.583 269.229 474.899 269.533C475.258 269.876 471.655 272.926 471.998 273.524C472.134 273.763 474.757 271.659 474.757 271.659C474.757 271.659 472.363 274.448 472.809 274.611C473.255 274.774 475.677 272.594 475.677 272.594C475.677 272.594 473.62 275.666 474.137 275.639C474.654 275.611 476.58 273.469 476.58 273.469C475.949 274.671 475.862 275.253 475.889 275.524C475.9 275.655 476.036 275.704 476.134 275.622C477.298 274.557 478.708 271.219 479.274 269.811H479.279V269.827C479.671 269.615 480.041 269.376 480.416 269.153C479.829 268.696 479.257 268.229 478.686 267.756V267.745Z" fill="#FCC08F"/>
<path d="M457.11 288.985C456.098 290.779 454.378 290.763 453.878 290.138C453.709 289.92 455.712 284.919 456.811 285.185C457.589 285.376 458.122 287.191 457.11 288.985Z" fill="#FDCD9D"/>
<path d="M461.507 289.355C461.218 289.377 461.594 290.943 461.675 291.464C461.752 291.937 461.975 292.258 462.209 292.079C462.818 291.611 461.904 289.328 461.507 289.355Z" fill="#FDCD9D"/>
<path d="M460.827 291.676C460.571 291.524 460.282 292.704 460.25 293.231C460.223 293.693 460.321 293.742 460.604 293.677C461.36 293.509 461.452 292.046 460.827 291.671V291.676Z" fill="#FDCD9D"/>
<path d="M459.004 293.036C458.748 292.883 458.835 294.123 458.813 294.726C458.797 295.129 458.797 295.422 459.085 295.362C459.842 295.194 459.82 293.519 459.004 293.036Z" fill="#FDCD9D"/>
<path d="M457.605 281.217C457.605 284.495 462.29 288.3 460.342 289.322C458.596 290.236 454.4 289.089 455.663 281.499L457.605 281.217Z" fill="#FDCD9D"/>
<path d="M455.804 285.457C457.045 282.19 461.033 287.333 461.48 288.654C461.969 290.105 459.151 292.834 458.492 291.807C456.479 288.659 454.161 289.79 455.804 285.457Z" fill="#FDCD9D"/>
<path d="M459.232 291.932C459.793 293.628 459.7 294.639 459.238 294.726C458.775 294.819 458.873 294.047 458.307 292.351C457.741 290.654 456.256 288.42 456.718 288.328C457.181 288.235 458.666 290.236 459.232 291.932Z" fill="#FDCD9D"/>
<path d="M460.533 290.421C461.442 292.008 461.142 293.15 460.718 293.329C460.293 293.503 459.804 291.861 458.895 290.274C457.986 288.686 457.486 287.61 457.91 287.436C458.334 287.262 459.624 288.839 460.527 290.421H460.533Z" fill="#FDCD9D"/>
<path d="M461.284 287.947C462.171 289.54 462.312 290.627 461.888 290.807C461.458 290.986 461.072 289.828 460.185 288.235C459.292 286.637 458.694 285.511 459.123 285.332C459.548 285.153 460.397 286.354 461.284 287.947Z" fill="#FDCD9D"/>
<path d="M453.769 291.72C453.257 292.247 453.17 292.992 453.557 293.471L455.978 296.472C456.109 296.635 456.321 296.722 456.55 296.705C456.784 296.694 457.018 296.58 457.186 296.401L463.482 289.866C463.912 289.42 463.988 288.79 463.662 288.387L461.354 285.522C461.169 285.294 460.876 285.169 460.544 285.191C460.212 285.207 459.885 285.365 459.64 285.62L453.769 291.715V291.72Z" fill="#A09D98"/>
<path d="M458.519 286.789C459.727 287.849 460.527 289.442 460.593 291.252C460.614 291.883 460.549 292.497 460.402 293.074L463.488 289.872C463.917 289.426 463.994 288.795 463.667 288.393L461.36 285.528C461.175 285.299 460.881 285.174 460.549 285.196C460.217 285.212 459.891 285.37 459.646 285.626L458.525 286.789H458.519Z" fill="#88847C"/>
<path d="M453.203 291.231C452.691 291.758 452.604 292.503 452.991 292.981L455.412 295.982C455.543 296.145 455.755 296.232 455.984 296.216C456.218 296.2 456.452 296.091 456.62 295.912L462.911 289.377C463.341 288.931 463.417 288.3 463.09 287.898L460.783 285.033C460.598 284.805 460.304 284.68 459.972 284.701C459.64 284.723 459.314 284.875 459.069 285.131L453.203 291.225V291.231Z" fill="#EEE7DE"/>
<path d="M454.923 289.703C455.222 292.34 456.174 294.514 457.246 295.27L460.043 292.367C460.179 291.405 460.19 290.296 460.059 289.121C459.885 287.604 459.499 286.245 458.998 285.218L454.901 289.475C454.906 289.551 454.917 289.627 454.923 289.708V289.703Z" fill="#FFF4EA"/>
<path d="M453.627 291.579C453.214 292.008 453.138 292.601 453.453 292.976L455.429 295.319C455.537 295.444 455.706 295.509 455.897 295.498C456.087 295.482 456.277 295.39 456.419 295.248L461.556 289.948C461.91 289.583 461.969 289.083 461.703 288.768L459.82 286.533C459.668 286.354 459.428 286.262 459.156 286.283C458.889 286.305 458.617 286.436 458.416 286.642L453.622 291.589L453.627 291.579Z" fill="#443D32"/>
<path d="M455.956 289.366L453.763 291.628C453.372 292.03 453.306 292.584 453.6 292.932L455.445 295.123C455.488 295.178 455.548 295.216 455.614 295.243C456.305 294.378 456.299 290.16 455.962 289.366H455.956Z" fill="#71675B"/>
<path d="M457.872 287.197C458.928 288.621 459.298 290.703 459.036 292.53L461.55 289.937C461.904 289.573 461.964 289.072 461.697 288.757L459.815 286.523C459.662 286.343 459.423 286.251 459.151 286.273C458.884 286.294 458.612 286.425 458.411 286.631L457.861 287.197H457.872Z" fill="#5C5144"/>
<path d="M460.843 286.517C460.609 286.707 460.544 287.034 460.701 287.246C460.859 287.458 461.175 287.479 461.409 287.289C461.643 287.099 461.708 286.773 461.55 286.561C461.393 286.349 461.077 286.327 460.843 286.517Z" fill="#4D4943"/>
<path d="M460.93 286.637C460.767 286.767 460.723 286.996 460.832 287.142C460.941 287.289 461.159 287.305 461.322 287.175C461.485 287.045 461.529 286.816 461.42 286.669C461.311 286.523 461.093 286.506 460.93 286.637Z" fill="#EEE7DE"/>
<path d="M459.131 293.657L457.897 294.916L458.104 295.117L459.337 293.859L459.131 293.657Z" fill="#D6C7B4"/>
<path d="M455.396 290.067C454.4 290.508 453.878 290.48 453.856 289.964C453.856 289.855 454.242 289.263 455.314 288.974C455.744 288.86 456.299 288.714 456.441 288.947C456.691 289.36 456.609 289.529 455.39 290.067H455.396Z" fill="#FDCD9D"/>
<path d="M458.149 294.596C457.736 294.117 457.725 293.824 458.035 293.601C458.1 293.552 458.525 293.476 458.998 293.927C459.259 294.177 459.689 294.585 459.537 294.911C459.238 295.558 458.672 295.466 458.144 294.596H458.149Z" fill="#FDCD9D"/>
<path d="M459.722 292.981C459.303 292.508 459.298 292.209 459.608 291.986C459.673 291.937 460.097 291.861 460.571 292.313C460.832 292.563 461.262 292.97 461.11 293.297C460.81 293.943 460.179 293.862 459.717 292.981H459.722Z" fill="#FDCD9D"/>
<path d="M461.278 291.655C460.952 291.263 460.946 291.024 461.186 290.839C461.235 290.801 461.567 290.741 461.942 291.106C462.149 291.307 462.486 291.644 462.367 291.91C462.133 292.443 461.953 292.454 461.278 291.649V291.655Z" fill="#FDCD9D"/>
<path d="M478.691 226.824C473.157 231.896 501.976 253.365 503.315 253.67C503.315 253.67 506.862 252.702 506.269 251.212C504.735 247.358 481.162 224.562 478.691 226.824Z" fill="#FCB32B"/>
<path d="M478.076 227.857C478.18 227.46 478.376 227.112 478.691 226.824C481.162 224.562 504.735 247.352 506.269 251.212C506.335 251.381 506.346 251.56 506.324 251.745C501.813 246.058 484.155 230.298 478.076 227.857Z" fill="#E59A24"/>
<path d="M479.35 268.37C475.835 264.216 502.215 249.386 503.364 249.212C503.364 249.212 507.292 250.027 505.986 252.376C504.278 255.453 480.917 270.229 479.344 268.37H479.35Z" fill="#FCB32B"/>
<path d="M501.29 256.295C493.901 261.64 480.536 269.767 479.35 268.37C479.051 268.017 478.969 267.587 479.067 267.098C484.661 265.222 495.038 260.003 501.285 256.295H501.29Z" fill="#E59A24"/>
<path d="M477.739 268.914L479.121 269.838L484.824 267.511C484.824 267.511 482.049 265.075 481.341 264.918C480.634 264.755 477.739 268.914 477.739 268.914Z" fill="white"/>
<path d="M477.81 269.011L476.917 267.598L480.498 262.509C480.498 262.509 481.711 265.26 481.853 265.978C481.994 266.69 477.81 269.017 477.81 269.017V269.011Z" fill="white"/>
<path d="M455.303 227.509C455.303 227.509 451.483 233.87 453.785 242.166L464.755 244.406C464.755 244.101 462.328 237.017 461.969 233.446C461.969 233.446 478.093 235.441 478.398 226.237L455.303 227.509Z" fill="#E59A24"/>
<path d="M456.631 221.915C452.087 225.177 457.768 232.706 466.225 232.652C474.904 232.592 481.467 227.465 477.249 222.371C474.784 219.392 473.255 221.545 475.318 212.52C477.184 204.344 455.935 204.159 455.978 205.697C456.163 212.085 463.123 217.25 456.631 221.915Z" fill="#007952"/>
<path d="M473.195 231.38C477.859 229.537 480.21 225.943 477.255 222.371C474.79 219.392 473.261 221.545 475.323 212.52C477.19 204.344 455.94 204.159 455.984 205.697C456.169 212.085 463.128 217.25 456.637 221.915C452.093 225.177 457.774 232.706 466.23 232.652C466.66 232.652 467.079 232.63 467.498 232.603H467.487C462.296 232.603 458.09 229.955 458.09 226.693C458.09 223.431 462.296 220.784 467.487 220.784C472.678 220.784 476.885 223.431 476.885 226.693C476.885 228.602 475.437 230.298 473.201 231.38H473.195Z" fill="#026D39"/>
<path d="M477.124 190.067C473.239 184.283 460.816 183.119 455.336 191.622C450.406 199.266 453.132 212.743 458.71 220.001C460.881 222.828 471.557 224.867 474.403 220.909C478.686 214.945 482.963 198.749 477.13 190.067H477.124Z" fill="#026D39"/>
<path d="M474.409 209.264C474.697 207.915 474.436 206.806 475.639 207.062C476.836 207.317 477.576 208.617 477.287 209.965C476.999 211.313 475.791 212.194 474.594 211.939C473.397 211.683 474.12 210.612 474.409 209.264Z" fill="#FCC08F"/>
<path d="M475.361 209.731C475.53 208.948 475.426 208.312 476.003 208.437C476.58 208.562 476.917 209.296 476.749 210.079C476.58 210.862 475.976 211.4 475.399 211.275C474.822 211.15 475.198 210.52 475.361 209.737V209.731Z" fill="#EF9070"/>
<path d="M475.699 210.971C475.312 211.384 475.22 211.868 474.73 211.411C474.246 210.955 474.159 210.253 474.545 209.845C474.931 209.438 475.639 209.476 476.123 209.932C476.613 210.389 476.079 210.563 475.699 210.971Z" fill="#FCC08F"/>
<path d="M458.791 209.264C458.503 207.915 458.764 206.806 457.562 207.062C456.365 207.317 455.624 208.617 455.913 209.965C456.201 211.313 457.409 212.194 458.606 211.939C459.804 211.683 459.08 210.612 458.791 209.264Z" fill="#FCC08F"/>
<path d="M457.839 209.731C457.671 208.948 457.774 208.312 457.197 208.437C456.62 208.562 456.283 209.296 456.452 210.079C456.62 210.862 457.224 211.4 457.801 211.275C458.378 211.15 458.002 210.52 457.839 209.737V209.731Z" fill="#EF9070"/>
<path d="M457.496 210.971C457.883 211.384 457.975 211.868 458.465 211.411C458.949 210.955 459.036 210.253 458.65 209.845C458.264 209.438 457.556 209.476 457.072 209.932C456.582 210.389 457.115 210.563 457.496 210.971Z" fill="#FCC08F"/>
<path d="M466.366 218.664C459.276 217.103 455.026 210.346 458.334 196.042C459.004 193.15 461.632 191.492 466.595 191.492C472.058 191.492 474.556 193.259 474.953 195.596C477.766 212.145 472.771 217.62 466.366 218.664Z" fill="#FCC08F"/>
<path d="M465.947 211.672C465.947 211.737 466.421 211.841 466.589 211.841C466.872 211.841 467.221 211.743 467.231 211.629C467.259 211.346 467.487 208.1 466.627 208.128C465.686 208.16 465.942 211.259 465.953 211.672H465.947Z" fill="#FCC08F"/>
<path d="M458.117 196.76C458.117 196.76 466.546 194.27 475.209 197.037C475.209 197.037 473.614 190.203 466.323 190.203C459.031 190.203 458.117 196.754 458.117 196.754V196.76Z" fill="#F3E4C9"/>
<path d="M466.546 188.839C460.13 188.839 454.923 196.482 454.923 205.915C454.923 215.347 460.125 222.991 466.546 222.991C472.967 222.991 478.169 215.347 478.169 205.915C478.169 196.482 472.967 188.839 466.546 188.839ZM466.546 220.713C461.73 220.713 457.828 214.086 457.828 205.915C457.828 197.744 461.73 191.117 466.546 191.117C471.362 191.117 475.263 197.744 475.263 205.915C475.263 214.086 471.362 220.713 466.546 220.713Z" fill="#007952"/>
<path d="M460.07 224.878L456.457 223.997C454.618 226.704 453.6 237.273 454.901 242.432L463.183 243.982C461.322 240.236 460.07 224.878 460.07 224.878Z" fill="#007952"/>
<path d="M455.543 236.773C455.543 231.548 457.681 226.025 459.613 223.464L455.69 222.833C453.85 225.546 453.595 237.267 454.895 242.432L456.125 242.661C455.75 240.861 455.537 238.871 455.537 236.773H455.543Z" fill="#026D39"/>
<path d="M460.103 221.115L457.148 224.627C457.148 224.627 457.513 228.351 462.514 230.352C462.514 230.352 458.253 224.481 460.103 221.115Z" fill="#026D39"/>
<path d="M473.059 217.843L474.61 221.181C474.61 221.181 472.608 223.932 466.513 224.334C466.513 224.334 473.522 220.822 473.059 217.848V217.843Z" fill="#026D39"/>
<path d="M469.294 207.617C469.648 207.617 469.936 207.027 469.936 206.301C469.936 205.574 469.648 204.985 469.294 204.985C468.939 204.985 468.652 205.574 468.652 206.301C468.652 207.027 468.939 207.617 469.294 207.617Z" fill="#151C45"/>
<path d="M470.605 204.572C470.496 204.784 470.355 204.969 470.17 205.132C469.99 205.295 469.756 205.42 469.495 205.48H469.484C469.354 205.513 469.228 205.431 469.201 205.306C469.174 205.175 469.25 205.05 469.381 205.023C469.403 205.023 469.424 205.018 469.446 205.018C469.805 205.034 470.202 204.811 470.475 204.496C470.502 204.458 470.551 204.452 470.583 204.48C470.611 204.501 470.616 204.539 470.6 204.572H470.605Z" fill="#151C45"/>
<path d="M463.732 207.617C464.087 207.617 464.374 207.027 464.374 206.301C464.374 205.574 464.087 204.985 463.732 204.985C463.378 204.985 463.09 205.574 463.09 206.301C463.09 207.027 463.378 207.617 463.732 207.617Z" fill="#151C45"/>
<path d="M462.552 204.496C462.824 204.812 463.221 205.029 463.58 205.018C463.711 205.018 463.819 205.116 463.825 205.246C463.825 205.377 463.727 205.486 463.596 205.491C463.575 205.491 463.553 205.491 463.536 205.486H463.526C463.264 205.426 463.036 205.295 462.851 205.138C462.666 204.975 462.524 204.79 462.416 204.578C462.394 204.54 462.415 204.496 462.448 204.474C462.481 204.458 462.519 204.469 462.541 204.491L462.552 204.496Z" fill="#151C45"/>
<path d="M468.924 210.275C468.701 210.71 468.363 211.08 467.955 211.373C467.547 211.667 467.041 211.852 466.518 211.852C465.996 211.841 465.49 211.661 465.087 211.357C464.875 211.221 464.712 211.025 464.532 210.862C464.38 210.666 464.233 210.471 464.102 210.27C464.298 210.416 464.483 210.569 464.663 210.721C464.864 210.846 465.044 210.993 465.251 211.096C465.648 211.324 466.083 211.449 466.518 211.455C466.954 211.466 467.389 211.33 467.792 211.112C468.194 210.889 468.57 210.601 468.924 210.27V210.275Z" fill="#151C45"/>
<path d="M467.188 212.607C467.003 212.77 466.752 212.83 466.513 212.836C466.268 212.83 466.023 212.759 465.838 212.607C466.078 212.645 466.29 212.694 466.513 212.683C466.736 212.694 466.954 212.651 467.188 212.607Z" fill="#151C45"/>
<path d="M464.908 201.745C464.608 201.479 464.271 201.392 463.912 201.375C463.558 201.37 463.194 201.408 462.851 201.528C462.503 201.631 462.187 201.827 461.915 202.06C461.637 202.283 461.441 202.582 461.278 202.876C461.197 203.023 461.251 203.213 461.398 203.294C461.518 203.36 461.659 203.338 461.757 203.251L461.784 203.229C461.991 203.039 462.192 202.86 462.421 202.724C462.639 202.577 462.878 202.501 463.123 202.435C463.368 202.381 463.624 202.348 463.879 202.359C464.135 202.37 464.407 202.381 464.69 202.31L464.772 202.289C464.946 202.245 465.049 202.071 465.006 201.897C464.989 201.832 464.957 201.778 464.908 201.734V201.745Z" fill="#151C45"/>
<path d="M468.118 201.745C468.418 201.479 468.755 201.392 469.114 201.375C469.468 201.37 469.832 201.408 470.175 201.528C470.523 201.631 470.839 201.827 471.111 202.06C471.389 202.283 471.585 202.582 471.748 202.876C471.829 203.023 471.775 203.213 471.628 203.294C471.508 203.36 471.367 203.338 471.269 203.251L471.242 203.229C471.035 203.039 470.834 202.86 470.605 202.724C470.387 202.577 470.148 202.501 469.903 202.435C469.658 202.381 469.403 202.348 469.147 202.359C468.891 202.37 468.619 202.381 468.336 202.31L468.254 202.289C468.08 202.245 467.977 202.071 468.02 201.897C468.037 201.832 468.069 201.778 468.118 201.734V201.745Z" fill="#151C45"/>
<path d="M466.665 204.295C466.78 204.789 466.861 205.284 466.954 205.768C467.046 206.252 467.139 206.736 467.275 207.198C467.308 207.312 467.34 207.426 467.384 207.535C467.416 207.627 467.498 207.796 467.498 207.959C467.514 208.285 467.302 208.606 467.035 208.736C466.763 208.889 466.448 208.867 466.197 208.78C465.947 208.687 465.724 208.552 465.534 208.383C465.996 208.557 466.535 208.693 466.856 208.448C467.019 208.323 467.106 208.16 467.084 207.981C467.073 207.888 467.046 207.829 466.986 207.687C466.937 207.562 466.894 207.443 466.856 207.317C466.714 206.817 466.644 206.312 466.616 205.806C466.589 205.301 466.595 204.795 466.665 204.289V204.295Z" fill="#151C45"/>
</g>
<defs>
<clipPath id="clip0_2489_61">
<rect width="582" height="384" fill="white"/>
</clipPath>
</defs>
</svg>
