<svg width="50" height="56" viewBox="0 0 50 56" fill="none" xmlns="http://www.w3.org/2000/svg">
<g id="Logo">
<path id="Vector 1" d="M0 2.43237C0 1.17265 1.13298 0.261945 2.32243 0.676778C9.62928 3.22512 31.447 14.2402 27.6861 54.1873C27.5906 55.202 26.729 56 25.7099 56H17.189C15.849 56 14.8909 54.7006 15.2169 53.4009C21.5769 28.0477 5.55851 16.7054 1.10893 14.101C0.439413 13.7091 0 13.0045 0 12.2288V2.43237Z" fill="#049365"/>
<path id="Vector 2" d="M28.1586 16.8156C27.0563 17.5208 26.8816 19.1912 27.408 20.3892C28.3021 22.424 28.9646 25.3946 29.6999 28.6104C30.044 30.1152 31.9464 30.7059 33.2066 29.8143C35.8705 27.9294 39.8906 25.6958 43.946 25.3051C45.1113 25.1928 46.1183 24.2802 46.1183 23.1095V15.3205C46.1183 14.2886 45.3315 13.423 44.3027 13.3428C36.2498 12.7155 33.2789 13.5398 28.1586 16.8156Z" fill="#049365"/>
</g>
</svg>
